<svg width="96" height="96" viewBox="0 0 96 96" fill="none" xmlns="http://www.w3.org/2000/svg">
<path d="M49.3049 31.276C48.0776 22.2378 40.8071 23.6919 36.4448 18.8449C37.6733 21.8388 45.2179 30.0749 49.3049 31.276Z" fill="#73B40D"/>
<path fill-rule="evenodd" clip-rule="evenodd" d="M50.6085 32.7927C51.1227 32.3508 51.378 31.6786 51.2867 31.0068C50.9418 28.467 50.1493 26.5219 48.982 24.99C47.8235 23.4698 46.3962 22.4898 45.008 21.7328C44.3197 21.3575 43.6159 21.0241 42.9577 20.7149C42.9074 20.6913 42.8574 20.6678 42.8077 20.6444C42.1906 20.3547 41.6138 20.0839 41.048 19.7884C39.8395 19.1571 38.7987 18.4705 37.9315 17.5069C37.2808 16.7839 36.2042 16.6339 35.3806 17.1515C34.5571 17.6691 34.2253 18.7041 34.5945 19.604C35.0109 20.6188 35.8567 21.8737 36.8199 23.1103C37.8167 24.3902 39.0553 25.7964 40.3797 27.1379C41.7022 28.4774 43.1386 29.781 44.5348 30.8409C45.8913 31.8707 47.3634 32.7899 48.741 33.1948C49.3914 33.3859 50.0944 33.2346 50.6085 32.7927ZM48.7651 28.8648C48.9994 29.5749 49.1823 30.3731 49.3049 31.2759C48.6361 31.0794 47.8746 30.6944 47.0633 30.1748C44.7484 28.6921 42.0281 26.1132 39.8982 23.6887C38.2138 21.7714 36.8985 19.9506 36.4448 18.8448C37.815 20.3672 39.472 21.268 41.1386 22.0675C41.4095 22.1975 41.6806 22.3248 41.9509 22.4516C44.7822 23.7807 47.5105 25.0614 48.7651 28.8648Z" fill="#436C02"/>
<path d="M50.0188 34.1841C51.2461 25.146 58.7409 20.7836 63.5879 21.7531C56.3174 22.7224 58.2562 31.9317 50.0188 34.1841Z" fill="#73B40D"/>
<path fill-rule="evenodd" clip-rule="evenodd" d="M48.7009 35.6885C48.1961 35.2462 47.9467 34.5801 48.037 33.915C49.3907 23.9467 57.8016 18.5562 63.9802 19.792C64.939 19.9837 65.6186 20.8407 65.5869 21.818C65.5552 22.7953 64.8215 23.6064 63.8522 23.7356C61.3497 24.0692 60.4399 25.6206 58.9277 28.4343L58.9095 28.4682C57.4564 31.172 55.5338 34.7496 50.5463 36.1133C49.8989 36.2904 49.2058 36.1308 48.7009 35.6885ZM50.478 31.9231C50.2811 32.6408 50.1261 33.3946 50.0188 34.1841C50.8391 33.9599 51.5584 33.6666 52.196 33.3194C54.7922 31.9055 56.0327 29.5966 57.2099 27.4058C57.7987 26.3098 58.3717 25.2434 59.0906 24.3334C60.126 23.0227 61.464 22.0363 63.5879 21.7531C61.8756 21.4106 59.8327 21.7336 57.8525 22.6931C54.7172 24.2123 51.739 27.3272 50.478 31.9231Z" fill="#436C02"/>
<path fill-rule="evenodd" clip-rule="evenodd" d="M50.0164 17.8143C51.1209 17.8143 52.0164 18.7098 52.0164 19.8143V34.3553C52.0164 35.4599 51.1209 36.3553 50.0164 36.3553C48.9118 36.3553 48.0164 35.4599 48.0164 34.3553V19.8143C48.0164 18.7098 48.9118 17.8143 50.0164 17.8143Z" fill="#457003"/>
<path d="M41.2918 32.9014C30.0766 31.945 19.2404 41.0569 19.965 52.2894C21.1283 72.8407 38.3835 80.1224 48.5623 80.1224C58.2562 80.1224 75.2208 73.2285 77.1596 52.2894C77.8843 41.0569 67.0479 31.945 55.8328 32.9014C52.875 33.1536 49.5964 34.9357 48.5623 35.1198C47.5281 34.9357 44.2496 33.1536 41.2918 32.9014Z" fill="#FF3A1A"/>
<path fill-rule="evenodd" clip-rule="evenodd" d="M79.1536 52.4461L79.151 52.4738C77.0892 74.7421 58.9569 82.1225 48.5622 82.1225C43.0633 82.1225 35.7705 80.1749 29.6668 75.5006C23.499 70.7772 18.5868 63.2943 17.9686 52.4102C17.1579 39.7614 29.2382 29.8663 41.4617 30.9087C43.2303 31.0595 45.0045 31.6531 46.3575 32.1661C46.8177 32.3406 47.2702 32.5223 47.6558 32.6772C47.8333 32.7485 47.9966 32.814 48.1399 32.8706C48.3027 32.9348 48.4423 32.9886 48.5622 33.0327C48.6822 32.9886 48.8218 32.9348 48.9845 32.8706C49.1279 32.814 49.2912 32.7485 49.4687 32.6772C49.8543 32.5223 50.3068 32.3406 50.767 32.1661C52.1199 31.6531 53.8942 31.0595 55.6628 30.9087C67.8888 29.8661 79.9718 39.7656 79.1554 52.4182L79.1536 52.4461ZM48.5622 35.1198C48.2188 35.0587 47.6279 34.8213 46.8833 34.5223C45.3859 33.9209 43.2673 33.0699 41.2917 32.9014C30.0766 31.9451 19.2403 41.057 19.9649 52.2894C21.1283 72.8407 38.3834 80.1225 48.5622 80.1225C58.2561 80.1225 75.2208 73.2285 77.1595 52.2894C77.8843 41.057 67.0479 31.9451 55.8327 32.9014C53.8572 33.0699 51.7386 33.9209 50.2411 34.5223C49.4966 34.8213 48.9057 35.0587 48.5622 35.1198Z" fill="#A20505"/>
<path fill-rule="evenodd" clip-rule="evenodd" d="M24.5557 39.606C28.6313 35.0817 34.9 32.3565 41.2918 32.9015C43.2673 33.07 45.386 33.921 46.8834 34.5224C47.6279 34.8214 48.2188 35.0588 48.5623 35.1199C48.9057 35.0588 49.4967 34.8214 50.2412 34.5224C51.7386 33.921 53.8572 33.07 55.8328 32.9015C62.5968 32.3247 69.2231 35.4103 73.2584 40.4146C67.9977 37.7199 61.669 36.2814 55.8328 36.7791C53.8573 36.9475 51.7386 37.7985 50.2412 38.3999C49.4967 38.699 48.9058 38.9363 48.5623 38.9975C48.2189 38.9363 47.6279 38.699 46.8834 38.3999C45.386 37.7985 43.2674 36.9475 41.2918 36.7791C35.2585 36.2646 29.4089 37.3844 24.5557 39.606Z" fill="#E83214"/>
<path fill-rule="evenodd" clip-rule="evenodd" d="M29.2467 72.5599C34.4571 75.8285 40.2442 77.2143 44.6846 77.2143C54.3785 77.2143 71.3432 70.3203 73.2819 49.3812C73.6274 44.0258 71.3449 39.1524 67.6462 35.6224C73.5243 39.0391 77.6139 45.2475 77.1595 52.2894C75.2208 73.2285 58.2561 80.1225 48.5622 80.1225C42.9783 80.1225 35.2649 77.9311 29.2467 72.5599Z" fill="#E83214"/>
<path d="M50.0162 30.7146C56.802 24.6612 58.7408 31.4471 65.0419 32.4165C61.8585 32.9982 53.2332 33.507 50.0162 30.7146Z" fill="#8ED918"/>
<path fill-rule="evenodd" clip-rule="evenodd" d="M48.0163 30.7282C48.0124 30.1534 48.256 29.6048 48.6849 29.2222C50.536 27.5709 52.2692 26.5999 54.0209 26.3162C55.8189 26.0251 57.3326 26.5065 58.6057 27.1435C59.2281 27.4549 59.824 27.8194 60.3695 28.161C60.4861 28.234 60.6001 28.3058 60.7124 28.3765C61.1471 28.6502 61.5563 28.9079 61.9903 29.1585C63.0555 29.7736 64.1134 30.2502 65.346 30.4398C66.3112 30.5883 67.028 31.412 67.0417 32.3885C67.0555 33.3649 66.3621 34.2084 65.4015 34.384C63.6592 34.7024 60.5526 34.9854 57.4409 34.8284C55.8796 34.7496 54.2585 34.5575 52.777 34.1778C51.3213 33.8048 49.8413 33.2111 48.7052 32.225C48.2712 31.8482 48.0202 31.3029 48.0163 30.7282ZM51.6419 29.4414C51.131 29.7813 50.591 30.2019 50.0162 30.7147C50.5111 31.1442 51.134 31.4957 51.8453 31.7807C54.2051 32.7264 57.5387 32.9418 60.4041 32.8557C62.2898 32.7991 63.9728 32.6119 65.0419 32.4166C63.4246 32.1677 62.0946 31.5357 60.8963 30.8359C60.4598 30.581 60.0408 30.3172 59.6317 30.0596C57.1592 28.5025 55.0499 27.1741 51.6419 29.4414Z" fill="#436C02"/>
<path d="M48.5619 31.4471C44.6845 26.6 40.3221 29.5082 32.0822 29.9929C35.475 31.9317 44.7852 33.4176 48.5619 31.4471Z" fill="#8ED918"/>
<path fill-rule="evenodd" clip-rule="evenodd" d="M50.5191 31.8594C50.6423 31.2743 50.4973 30.6648 50.1238 30.1978C48.9681 28.7532 47.6844 27.7799 46.2051 27.2316C44.7525 26.6933 43.2696 26.6243 41.8189 26.7255C40.5978 26.8107 39.2713 27.0297 37.9261 27.2518C37.7067 27.288 37.4868 27.3243 37.2668 27.3601C35.6557 27.6224 33.9196 27.8815 31.9648 27.9965C31.0813 28.0484 30.3369 28.675 30.135 29.5367C29.933 30.3984 30.3215 31.2904 31.0899 31.7295C33.1295 32.895 36.6171 33.7931 39.9516 34.1732C41.6547 34.3673 43.4074 34.4373 45.018 34.3185C46.5954 34.2021 48.1958 33.8941 49.4871 33.2204C50.0173 32.9438 50.3958 32.4445 50.5191 31.8594ZM47.0177 29.9276C47.5456 30.318 48.0579 30.817 48.562 31.4472C47.9866 31.7474 47.2826 31.9674 46.4907 32.1178C43.6487 32.6575 39.6738 32.3005 36.4384 31.5379C34.6587 31.1184 33.1028 30.5762 32.0822 29.993C33.7067 29.8975 35.1804 29.7077 36.5295 29.5018C37.1321 29.4098 37.7099 29.3145 38.2651 29.223C41.9516 28.6154 44.643 28.1717 47.0177 29.9276Z" fill="#436C02"/>
<path d="M41.733 38.8529C43.7254 41.8175 41.7355 46.6434 37.2887 49.6319C32.8418 52.6203 27.6218 52.6397 25.6295 49.6751C23.6372 46.7105 25.627 41.8846 30.0739 38.8962C34.5208 35.9077 39.7407 35.8883 41.733 38.8529Z" fill="#FE7B7B"/>
<path fill-rule="evenodd" clip-rule="evenodd" d="M33.4756 41.2072C34.124 42.1014 33.9248 43.3519 33.0305 44.0003C32.376 44.475 31.8836 45.0293 31.5259 45.6672C30.9857 46.6307 29.7668 46.9738 28.8033 46.4336C27.8398 45.8934 27.4967 44.6744 28.0369 43.711C28.6912 42.5441 29.5822 41.5599 30.6825 40.7621C31.5767 40.1136 32.8272 40.3129 33.4756 41.2072Z" fill="white"/>
<path d="M66.1231 60.2943C65.483 61.163 64.2599 61.3484 63.3912 60.7084C62.5224 60.0683 62.337 58.8452 62.9771 57.9765C63.6171 57.1077 64.8402 56.9223 65.709 57.5624C66.5777 58.2024 66.7631 59.4255 66.1231 60.2943Z" fill="#BD1106"/>
<path d="M69.2242 66.7374C68.5841 67.6061 67.361 67.7915 66.4923 67.1515C65.6235 66.5114 65.4381 65.2883 66.0782 64.4196C66.7182 63.5508 67.9413 63.3654 68.8101 64.0055C69.6788 64.6455 69.8642 65.8686 69.2242 66.7374Z" fill="#BD1106"/>
<path d="M71.5521 60.1282C71.0721 60.7798 70.1547 60.9188 69.5032 60.4388C68.8516 59.9587 68.7125 59.0414 69.1926 58.3898C69.6726 57.7383 70.59 57.5992 71.2415 58.0793C71.8931 58.5593 72.0321 59.4766 71.5521 60.1282Z" fill="#BD1106"/>
<path d="M64.2962 71.8004C63.6561 72.6691 62.433 72.8545 61.5643 72.2145C60.6955 71.5744 60.5101 70.3513 61.1502 69.4826C61.7902 68.6138 63.0133 68.4284 63.8821 69.0685C64.7508 69.7085 64.9362 70.9316 64.2962 71.8004Z" fill="#BD1106"/>
<path d="M62.4198 65.4528C61.7798 66.3216 60.5567 66.507 59.6879 65.8669C58.8192 65.2269 58.6338 64.0038 59.2738 63.135C59.9139 62.2663 61.137 62.0809 62.0057 62.7209C62.8745 63.361 63.0599 64.5841 62.4198 65.4528Z" fill="#BD1106"/>
<path d="M57.0138 74.7092C56.3738 75.5779 55.1507 75.7633 54.2819 75.1233C53.4132 74.4832 53.2278 73.2601 53.8678 72.3914C54.5079 71.5226 55.731 71.3372 56.5997 71.9773C57.4685 72.6173 57.6539 73.8404 57.0138 74.7092Z" fill="#BD1106"/>
<path d="M56.2522 68.5555C55.6122 69.4243 54.3891 69.6096 53.5203 68.9696C52.6516 68.3296 52.4662 67.1064 53.1062 66.2377C53.7463 65.3689 54.9694 65.1835 55.8381 65.8236C56.7069 66.4636 56.8923 67.6868 56.2522 68.5555Z" fill="#BD1106"/>
<path d="M49.3799 75.7522C48.8998 76.4038 47.9825 76.5428 47.3309 76.0628C46.6794 75.5828 46.5403 74.6654 47.0203 74.0139C47.5004 73.3623 48.4177 73.2233 49.0693 73.7033C49.7208 74.1833 49.8599 75.1007 49.3799 75.7522Z" fill="#BD1106"/>
</svg>
