<?xml version="1.0" encoding="utf-8"?>
<!-- Generator: Adobe Illustrator 24.0.0, SVG Export Plug-In . SVG Version: 6.00 Build 0)  -->
<svg version="1.1" xmlns="http://www.w3.org/2000/svg" xmlns:xlink="http://www.w3.org/1999/xlink" x="0px" y="0px"
	 viewBox="0 0 256 256" enable-background="new 0 0 256 256" xml:space="preserve">
<g id="Layer_2" display="none">
	<rect x="-1100" y="-2808" display="inline" fill="#FFFFFF" width="1786" height="5896"/>
</g>
<g id="Layer_1">
	<g>
		<path fill="#72C2E9" d="M248,50.999v182c0,2.76-2.24,5-5,5H24.45c-8.62,0-16.03-6.63-16.43-15.23
			c-0.43-9.19,6.89-16.77,15.98-16.77c8.84,0,16,7.16,16,16v-176h166.25l0.01,66.04l0.01,0.01l5.27,9.95l7.59,14.31l7.59-14.31
			l5.28-9.96v-66.04h11C245.76,45.999,248,48.239,248,50.999z"/>
		<path fill="#4BA5C8" d="M237,45.999v66.04c0,0.82-0.2,1.62-0.58,2.34l-12.93,24.37c-1.87,3.53-6.9,3.55-8.81,0.05l-12.8-23.56
			c-0.4-0.74-0.61-1.56-0.61-2.39l-0.02-66.85h5l0.01,66.04l0.01,0.01l5.27,9.95l7.59,14.31l7.59-14.31l5.28-9.96v-66.04H237z"/>
		<path fill="#4BA5C8" d="M40,37.999v184c0-8.84-7.16-16-16-16s-16,7.16-16,16v-184c0-8.84,7.16-16,16-16S40,29.159,40,37.999z"/>
		<path fill="#F0C020" d="M232,26.169v85.87l-5.28,9.96l-7.59,14.31l-7.59-14.31l-5.27-9.95l-0.01-0.01l-0.01-66.04v-19.83
			c0-4.42,3.58-8,8-8H224C228.42,18.169,232,21.749,232,26.169z"/>
		<polygon fill="#EFEFEF" points="232,112.039 226.72,121.999 219.13,136.309 211.54,121.999 206.27,112.049 		"/>
		<polygon fill="#7D7B79" points="226.72,121.999 219.13,136.309 211.54,121.999 		"/>
		<path fill="#FC5D3D" d="M232,26.169v7.83h-25.75v-7.83c0-4.418,3.582-8,8-8H224C228.418,18.169,232,21.751,232,26.169z"/>
		<path fill="#C5E5FE" d="M192.01,60.499c-1.381,0-2.505-1.119-2.505-2.5s1.114-2.5,2.495-2.5h0.01c1.381,0,2.5,1.119,2.5,2.5
			S193.391,60.499,192.01,60.499z M182,60.499H53c-1.381,0-2.5-1.119-2.5-2.5s1.119-2.5,2.5-2.5h129c1.381,0,2.5,1.119,2.5,2.5
			S183.381,60.499,182,60.499z"/>
		<path fill="#C5E5FE" d="M200,228.499H66c-1.381,0-2.5-1.119-2.5-2.5s1.119-2.5,2.5-2.5h134c1.381,0,2.5,1.119,2.5,2.5
			S201.381,228.499,200,228.499z M56,228.499h-8c-1.381,0-2.5-1.119-2.5-2.5s1.119-2.5,2.5-2.5h8c1.381,0,2.5,1.119,2.5,2.5
			S57.381,228.499,56,228.499z"/>
		<path fill="#EFEFEF" d="M109,92.084H59c-1.657,0-3-1.343-3-3v-14c0-1.657,1.343-3,3-3h50c1.657,0,3,1.343,3,3v14
			C112,90.741,110.657,92.084,109,92.084z"/>
		<path fill="#EFEFEF" d="M180.641,150.877h-30.019c-1.657,0-3-1.343-3-3v-15.25c0-1.657,1.343-3,3-3h30.019c1.657,0,3,1.343,3,3
			v15.25C183.641,149.534,182.297,150.877,180.641,150.877z"/>
		<path fill="#EFEFEF" d="M99.75,208.084H68.025c-1.657,0-3-1.343-3-3v-18c0-1.657,1.343-3,3-3H99.75c1.657,0,3,1.343,3,3v18
			C102.75,206.741,101.407,208.084,99.75,208.084z"/>
		<path fill="#EFEFEF" d="M176.494,93.557h-21.725c-1.657,0-3-1.343-3-3v-15.25c0-1.657,1.343-3,3-3h21.725c1.657,0,3,1.343,3,3
			v15.25C179.494,92.214,178.151,93.557,176.494,93.557z"/>
		<circle fill="#13BF6D" cx="165.631" cy="196.124" r="15.567"/>
		<path fill="#EFEFEF" d="M109,148.084H59c-1.657,0-3-1.343-3-3v-14c0-1.657,1.343-3,3-3h50c1.657,0,3,1.343,3,3v14
			C112,146.741,110.657,148.084,109,148.084z"/>
		<g>
			<path d="M80.71,235.493c-1.38,0-2.5,1.13-2.5,2.51c0,1.37,1.12,2.5,2.5,2.5s2.5-1.13,2.5-2.5
				C83.21,236.624,82.09,235.493,80.71,235.493z"/>
			<path d="M232,151.299h-32c-1.381,0-2.5,1.119-2.5,2.5s1.119,2.5,2.5,2.5h32c1.381,0,2.5-1.119,2.5-2.5
				S233.381,151.299,232,151.299z"/>
			<path d="M232,163.299h-23.75c-1.381,0-2.5,1.119-2.5,2.5s1.119,2.5,2.5,2.5H232c1.381,0,2.5-1.119,2.5-2.5
				S233.381,163.299,232,163.299z"/>
			<path d="M232,175.299h-23.75c-1.381,0-2.5,1.119-2.5,2.5s1.119,2.5,2.5,2.5H232c1.381,0,2.5-1.119,2.5-2.5
				S233.381,175.299,232,175.299z"/>
			<path d="M200,209.284h32c1.381,0,2.5-1.119,2.5-2.5s-1.119-2.5-2.5-2.5h-32c-1.381,0-2.5,1.119-2.5,2.5
				S198.619,209.284,200,209.284z"/>
			<path d="M232,216.284h-23.75c-1.381,0-2.5,1.119-2.5,2.5s1.119,2.5,2.5,2.5H232c1.381,0,2.5-1.119,2.5-2.5
				S233.381,216.284,232,216.284z"/>
			<path d="M243,43.504h-8.5V26.169c0-5.79-4.71-10.5-10.5-10.5h-9.75c-5.79,0-10.5,4.71-10.5,10.5
				c0.001,9.775,0.001,10.182,0.002,17.335H42.5v-5.505c0-10.201-8.299-18.5-18.5-18.5s-18.5,8.299-18.5,18.5
				c0,0.93,0.02,184.885,0.02,184.885c0.499,9.997,8.979,17.599,18.931,17.62h46.26c1.38,0,2.5-1.13,2.5-2.5
				c0-1.38-1.11-2.5-2.48-2.5c-0.01,0-0.01-0.01-0.02-0.01H24.45c-7.381,0-13.631-5.76-13.931-12.84
				c-0.387-7.675,5.772-14.155,13.48-14.155c7.444,0,13.5,6.056,13.5,13.5c0,1.381,1.119,2.5,2.5,2.5s2.5-1.119,2.5-2.5V48.493
				h161.253l0.007,63.546c0,0.001,0,0.001,0,0.002s0,0.001,0,0.002c0,0.424,0.153,0.924,0.333,1.237l12.828,24.199
				c0.938,1.768,3.479,1.769,4.418,0l12.87-24.271c0.161-0.305,0.291-0.765,0.291-1.166c0-0.001,0-0.002,0-0.003
				c0-0.001,0-0.001,0-0.002V48.504h8.5c1.37,0,2.5,1.12,2.5,2.5v182c0,1.37-1.13,2.49-2.5,2.49H90.71c-1.38,0-2.5,1.13-2.5,2.51
				c0,1.37,1.12,2.5,2.5,2.5H243c4.13-0.01,7.5-3.37,7.5-7.5v-182C250.5,46.864,247.13,43.504,243,43.504z M37.5,209.362
				c-3.378-3.606-8.181-5.863-13.5-5.863s-10.122,2.257-13.5,5.863V37.999c0-7.444,6.056-13.5,13.5-13.5s13.5,6.056,13.5,13.5
				V209.362z M219.13,130.973l-3.435-6.48h6.871L219.13,130.973z M225.217,119.493h-12.172l-2.629-4.96c4.055,0,8.17,0,17.432,0
				L225.217,119.493z M229.5,109.544h-7.88v-23.54c0-1.38-1.12-2.51-2.49-2.51c-1.38,0-2.51,1.13-2.51,2.51v23.54h-7.861
				l-0.008-73.05h7.869v29.5c0,1.38,1.13,2.51,2.51,2.51c1.37,0,2.49-1.13,2.49-2.51v-29.5h7.88V109.544z M229.5,31.504h-20.749
				l-0.001-5.335c0-3.033,2.468-5.5,5.5-5.5H224c3.032,0,5.5,2.467,5.5,5.5V31.504z"/>
			<path d="M219.13,73.493c-1.38,0-2.51,1.13-2.51,2.51c0,1.37,1.13,2.49,2.51,2.49c1.37,0,2.49-1.12,2.49-2.49
				C221.62,74.624,220.5,73.493,219.13,73.493z"/>
			<path d="M100,79.584H68c-1.38,0-2.5,1.12-2.5,2.5c0,1.38,1.12,2.5,2.5,2.5h32c1.38,0,2.5-1.12,2.5-2.5
				C102.5,80.703,101.38,79.584,100,79.584z"/>
			<path d="M65.5,138.084c0,1.38,1.12,2.5,2.5,2.5h32c1.38,0,2.5-1.12,2.5-2.5c0-1.38-1.12-2.5-2.5-2.5H68
				C66.62,135.584,65.5,136.703,65.5,138.084z"/>
			<path d="M76,198.584h16c1.38,0,2.5-1.12,2.5-2.5c0-1.38-1.12-2.5-2.5-2.5H76c-1.38,0-2.5,1.12-2.5,2.5
				C73.5,197.464,74.62,198.584,76,198.584z"/>
			<path d="M157.63,142.584h16c1.38,0,2.5-1.12,2.5-2.5c0-1.38-1.12-2.5-2.5-2.5h-16c-1.38,0-2.5,1.12-2.5,2.5
				C155.13,141.464,156.25,142.584,157.63,142.584z"/>
			<path d="M172,80.433h-12.74c-1.38,0-2.5,1.12-2.5,2.5c0,1.38,1.12,2.5,2.5,2.5H172c1.38,0,2.5-1.12,2.5-2.5
				C174.5,81.553,173.38,80.433,172,80.433z"/>
			<path d="M185.77,178.314c-0.939-0.94-2.59-0.94-3.54,0l-4.464,4.467c-3.212-2.922-7.463-4.722-12.135-4.727
				c-9.96,0.01-18.07,8.11-18.07,18.07c0,9.96,8.11,18.07,18.07,18.07s18.07-8.11,18.07-18.07c0-3.48-1.007-6.721-2.72-9.481
				l4.789-4.789C186.74,180.874,186.74,179.294,185.77,178.314z M165.63,209.194c-7.19-0.02-13.05-5.88-13.07-13.07
				c0.021-7.19,5.88-13.05,13.07-13.07c3.288,0.009,6.292,1.25,8.594,3.271L166,194.553l-4.23-4.24c-0.95-0.94-2.59-0.94-3.54,0
				c-0.975,0.975-0.974,2.565,0,3.54l6,6c0.978,0.976,2.567,0.973,3.54,0l9.539-9.539c0.88,1.753,1.389,3.721,1.392,5.809
				C178.689,203.314,172.819,209.174,165.63,209.194z"/>
			<path d="M109,69.584H59c-3.03,0-5.5,2.47-5.5,5.5v14c0,3.03,2.47,5.5,5.5,5.5h22.5v15.463l-5.99-5.983
				c-0.94-0.94-2.59-0.94-3.53,0c-0.952,0.952-0.992,2.526-0.01,3.53h0.01l10.25,10.26c0.987,0.985,2.583,0.958,3.54,0l10.25-10.26
				c0.98-0.978,0.968-2.564,0-3.53c-0.939-0.94-2.59-0.94-3.529,0l-5.99,5.983V94.584H109c3.03,0,5.5-2.47,5.5-5.5v-3.65h16.727
				l-5.987,5.98c-1.019,1.04-0.93,2.612,0,3.54c1.025,1.005,2.596,0.944,3.54,0l10.222-10.232c1.01-0.985,0.997-2.587,0.028-3.558
				l-10.25-10.25c-0.94-0.95-2.591-0.95-3.54,0c-0.971,0.97-0.971,2.56,0,3.53l5.989,5.99H114.5v-5.35
				C114.5,72.053,112.03,69.584,109,69.584z M109.5,89.084c0,0.28-0.23,0.5-0.5,0.5H59c-0.28,0-0.5-0.22-0.5-0.5v-14
				c0-0.27,0.22-0.5,0.5-0.5h50c0.27,0,0.5,0.23,0.5,0.5V89.084z"/>
			<path d="M145.12,132.624v15.25c0,3.03,2.47,5.5,5.5,5.5h12.51v13.167l-5.98-5.987c-0.949-0.94-2.6-0.94-3.54,0.01
				c-0.993,0.993-0.956,2.574,0,3.53c0,0,0.011,0,0.011,0.01l10.239,10.24c1.001,0.978,2.559,0.963,3.54,0l10.25-10.25
				c0.98-0.98,0.98-2.56,0-3.53c-0.939-0.95-2.59-0.95-3.529-0.01l-5.99,5.99v-13.17h12.51c3.03,0,5.5-2.47,5.5-5.5v-15.25
				c0-3.03-2.47-5.5-5.5-5.5h-30.02C147.59,127.124,145.12,129.594,145.12,132.624z M150.12,132.624c0-0.27,0.229-0.5,0.5-0.5h30.02
				c0.271,0,0.5,0.23,0.5,0.5v15.25c0,0.28-0.229,0.5-0.5,0.5h-30.02c-0.271,0-0.5-0.22-0.5-0.5V132.624z"/>
			<path d="M68.03,210.584h31.72c3.03,0,5.5-2.47,5.5-5.5v-6.5h24.97l-5.99,5.99c-0.993,0.994-0.956,2.573,0,3.53
				c0.978,0.976,2.567,0.973,3.54,0c0,0,0,0,0-0.01l10.25-10.24c0.926-0.925,1.016-2.504,0-3.54l-10.25-10.25
				c-0.95-0.94-2.59-0.94-3.54,0c-0.97,0.97-0.97,2.56,0,3.54l5.987,5.98H105.25v-6.5c0-3.03-2.47-5.5-5.5-5.5H68.03
				c-3.04,0-5.5,2.47-5.511,5.5v18C62.53,208.114,64.99,210.584,68.03,210.584z M67.52,187.084c0-0.28,0.23-0.5,0.511-0.5h31.72
				c0.27,0,0.5,0.22,0.5,0.5v18c0,0.27-0.23,0.5-0.5,0.5H68.03c-0.28,0-0.511-0.22-0.511-0.5V187.084z"/>
			<path d="M176.49,96.053c3.029,0,5.5-2.47,5.5-5.5v-15.25c0-3.03-2.471-5.49-5.5-5.5H154.77c-3.029,0.01-5.5,2.47-5.5,5.5v15.25
				c0,3.03,2.471,5.5,5.5,5.5h8.36v16.59l-5.98-5.98c-0.949-0.95-2.6-0.95-3.54,0c-0.962,0.963-0.982,2.547,0,3.53
				c0,0.01,0.011,0.01,0.011,0.01l10.239,10.25c1.026,1.004,2.608,0.933,3.54,0l10.25-10.26c0.98-0.97,0.98-2.56,0-3.53
				c-0.939-0.94-2.59-0.94-3.529,0l-5.99,5.983V96.053H176.49z M154.77,91.053c-0.27,0-0.5-0.22-0.5-0.5v-15.25
				c0-0.27,0.23-0.5,0.5-0.5h21.721c0.279,0,0.5,0.23,0.5,0.5v15.25c0,0.28-0.221,0.5-0.5,0.5H154.77z"/>
			<circle cx="97.569" cy="128.084" r="2.5"/>
			<path d="M53.5,145.084c0,3.03,2.47,5.5,5.5,5.5h22.5v17.063l-5.99-5.983c-0.94-0.95-2.59-0.94-3.53,0
				c-0.976,0.977-0.97,2.56-0.01,3.52c0,0.01,0.01,0.01,0.01,0.01l10.25,10.26c0.978,0.977,2.571,0.97,3.54,0l10.25-10.26
				c0.968-0.967,0.98-2.551,0-3.53c-0.939-0.94-2.59-0.94-3.529,0l-5.99,5.983v-17.063H109c3.03,0,5.5-2.47,5.5-5.5v-14
				c0-3.03-2.47-5.5-5.5-5.5h-1.431c-1.38,0-2.5,1.12-2.5,2.5c0,1.38,1.12,2.5,2.5,2.5c0.011,0,0.011,0,0.011,0H109
				c0.27,0,0.5,0.23,0.5,0.5v14c0,0.28-0.23,0.5-0.5,0.5H59c-0.28,0-0.5-0.22-0.5-0.5v-14c0-0.27,0.22-0.5,0.5-0.5h28.569
				c1.381,0,2.5-1.12,2.5-2.5c0-1.38-1.119-2.5-2.5-2.5H59c-3.03,0-5.5,2.47-5.5,5.5V145.084z"/>
		</g>
	</g>
</g>
</svg>
