<?xml version="1.0" encoding="iso-8859-1"?>
<!-- Generator: Adobe Illustrator 24.0.3, SVG Export Plug-In . SVG Version: 6.00 Build 0)  -->
<svg version="1.1" xmlns="http://www.w3.org/2000/svg" xmlns:xlink="http://www.w3.org/1999/xlink" x="0px" y="0px"
	 viewBox="0 0 64 64" style="enable-background:new 0 0 64 64;" xml:space="preserve">
<g id="safe-earning">
	<path style="fill:#ABD8C7;" d="M32.363,7.726V27.63c-4.586,0.203-7.714,1.792-9.458,3.036C23.274,17.755,27.017,8.69,32.363,7.726z
		 M34.266,7.726V27.63c4.586,0.203,7.714,1.792,9.458,3.036C43.361,17.755,39.613,8.69,34.266,7.726z M38.935,8.119
		c3.966,3.777,6.426,11.816,6.697,22.63c2.494-1.811,5.075-2.45,7.477-2.45c3.738,0,7.041,1.554,8.915,2.654
		C61.09,19.586,51.462,10.293,38.935,8.119z M4.61,30.893c1.632-0.983,4.315-2.247,7.38-2.247c3.39,0,7.041,1.559,8.998,2.533
		c0.213-11.027,2.688-19.235,6.707-23.061C15.186,10.288,5.574,19.557,4.61,30.893z"/>
	<g>
		<path style="fill:#9AC1B1;" d="M59.262,30.071c1.765,0.57,3.262,1.327,4.321,1.949C62.601,20.073,52.481,10.304,39.312,8.019
			C39.742,8.428,59.262,17.658,59.262,30.071z"/>
	</g>
	<path style="fill:#47705D;" d="M34.266,5.755V1.935h-1.903v3.821C15.884,6.201,2.63,18.143,2.63,32.763
		c0,0.373,0.213,0.707,0.547,0.862c0.334,0.16,0.731,0.107,1.012-0.131c0.039-0.029,3.593-2.944,7.801-2.944
		c4.3,0,9.395,3.002,9.448,3.031c0.295,0.174,0.659,0.179,0.959,0.01c0.092-0.053,0.179-0.121,0.247-0.203
		c0.019-0.015,0.814-0.901,2.421-1.821c1.608-0.925,4.029-1.879,7.298-2.039v26.097c0,2.504-2.034,4.538-4.542,4.538
		c-2.504,0-4.538-2.034-4.538-4.538v-2.286H21.38v2.286c0,3.554,2.886,6.441,6.446,6.441c3.554,0,6.441-2.886,6.441-6.441V29.528
		c6.533,0.32,9.685,3.821,9.719,3.86c0.184,0.213,0.45,0.329,0.722,0.329c0.111,0,0.223-0.019,0.329-0.058
		c0.126-0.048,0.237-0.121,0.329-0.208c3.177-3.031,6.988-3.961,11.317-2.765c3.337,0.92,5.753,2.809,5.777,2.828
		c0.286,0.223,0.678,0.266,1.002,0.107C63.792,33.46,64,33.131,64,32.763C64,18.143,50.746,6.201,34.266,5.755z M20.988,31.179
		c-1.956-0.973-5.608-2.533-8.998-2.533c-3.065,0-5.748,1.264-7.38,2.247C5.574,19.557,15.186,10.288,27.695,8.119
		C23.676,11.944,21.201,20.153,20.988,31.179z M32.363,27.63c-4.586,0.203-7.714,1.792-9.458,3.036
		c0.368-12.91,4.111-21.976,9.458-22.939V27.63z M34.266,27.63V7.726c5.346,0.964,9.094,10.029,9.458,22.939
		C41.981,29.421,38.852,27.833,34.266,27.63z M53.109,28.298c-2.402,0-4.983,0.639-7.477,2.45
		c-0.271-10.814-2.731-18.852-6.697-22.63c12.528,2.174,22.155,11.467,23.09,22.833C60.15,29.852,56.847,28.298,53.109,28.298z
		 M54.421,45.232c-1.429-2.993-5.031-4.271-8.034-2.847c-2.993,1.429-4.271,5.031-2.847,8.034c1.031,2.16,3.196,3.429,5.453,3.429
		c0.867,0,1.748-0.189,2.581-0.586c0.731-0.344,1.37-0.823,1.898-1.409c0.523-0.581,0.93-1.269,1.201-2.029
		C55.206,48.307,55.119,46.676,54.421,45.232z M52.877,49.189c-0.368,1.046-1.119,1.879-2.121,2.354
		c-2.053,0.978-4.523,0.107-5.496-1.942c-0.973-2.053-0.097-4.518,1.947-5.496c0.571-0.271,1.172-0.397,1.763-0.397
		c1.545,0,3.031,0.867,3.738,2.354C53.182,47.044,53.24,48.157,52.877,49.189z M54.421,45.232c-1.429-2.993-5.031-4.271-8.034-2.847
		c-2.993,1.429-4.271,5.031-2.847,8.034c1.031,2.16,3.196,3.429,5.453,3.429c0.867,0,1.748-0.189,2.581-0.586
		c0.731-0.344,1.37-0.823,1.898-1.409c0.523-0.581,0.93-1.269,1.201-2.029C55.206,48.307,55.119,46.676,54.421,45.232z
		 M52.877,49.189c-0.368,1.046-1.119,1.879-2.121,2.354c-2.053,0.978-4.523,0.107-5.496-1.942c-0.973-2.053-0.097-4.518,1.947-5.496
		c0.571-0.271,1.172-0.397,1.763-0.397c1.545,0,3.031,0.867,3.738,2.354C53.182,47.044,53.24,48.157,52.877,49.189z M54.421,45.232
		c-1.429-2.993-5.031-4.271-8.034-2.847c-2.993,1.429-4.271,5.031-2.847,8.034c1.031,2.16,3.196,3.429,5.453,3.429
		c0.867,0,1.748-0.189,2.581-0.586c0.731-0.344,1.37-0.823,1.898-1.409c0.523-0.581,0.93-1.269,1.201-2.029
		C55.206,48.307,55.119,46.676,54.421,45.232z M52.877,49.189c-0.368,1.046-1.119,1.879-2.121,2.354
		c-2.053,0.978-4.523,0.107-5.496-1.942c-0.973-2.053-0.097-4.518,1.947-5.496c0.571-0.271,1.172-0.397,1.763-0.397
		c1.545,0,3.031,0.867,3.738,2.354C53.182,47.044,53.24,48.157,52.877,49.189z M54.421,45.232c-1.429-2.993-5.031-4.271-8.034-2.847
		c-2.993,1.429-4.271,5.031-2.847,8.034c1.031,2.16,3.196,3.429,5.453,3.429c0.867,0,1.748-0.189,2.581-0.586
		c0.731-0.344,1.37-0.823,1.898-1.409c0.523-0.581,0.93-1.269,1.201-2.029C55.206,48.307,55.119,46.676,54.421,45.232z
		 M52.877,49.189c-0.368,1.046-1.119,1.879-2.121,2.354c-2.053,0.978-4.523,0.107-5.496-1.942c-0.973-2.053-0.097-4.518,1.947-5.496
		c0.571-0.271,1.172-0.397,1.763-0.397c1.545,0,3.031,0.867,3.738,2.354C53.182,47.044,53.24,48.157,52.877,49.189z M54.421,45.232
		c-1.429-2.993-5.031-4.271-8.034-2.847c-2.993,1.429-4.271,5.031-2.847,8.034c1.031,2.16,3.196,3.429,5.453,3.429
		c0.867,0,1.748-0.189,2.581-0.586c0.731-0.344,1.37-0.823,1.898-1.409c0.523-0.581,0.93-1.269,1.201-2.029
		C55.206,48.307,55.119,46.676,54.421,45.232z M52.877,49.189c-0.368,1.046-1.119,1.879-2.121,2.354
		c-2.053,0.978-4.523,0.107-5.496-1.942c-0.973-2.053-0.097-4.518,1.947-5.496c0.571-0.271,1.172-0.397,1.763-0.397
		c1.545,0,3.031,0.867,3.738,2.354C53.182,47.044,53.24,48.157,52.877,49.189z M60.252,49.305c-0.3-0.639-0.833-1.114-1.472-1.327
		c-0.262-0.097-0.45-0.339-0.484-0.62v-0.082c-0.019-0.295,0.14-0.562,0.368-0.673c0.63-0.262,1.114-0.765,1.361-1.409
		c0.252-0.659,0.218-1.404-0.082-2.048h-0.005l-0.426-0.896c-0.3-0.634-0.828-1.109-1.487-1.346
		c-0.659-0.232-1.366-0.194-2.005,0.107c-0.262,0.126-0.562,0.077-0.789-0.126c-0.015-0.01-0.034-0.024-0.048-0.039
		c-0.194-0.194-0.266-0.484-0.174-0.731c0.015-0.044,0.029-0.102,0.039-0.16c0.189-0.625,0.14-1.288-0.14-1.879
		c-0.3-0.634-0.823-1.109-1.472-1.332L52.475,36.4c-0.659-0.228-1.361-0.189-1.985,0.107c-0.601,0.281-1.061,0.775-1.298,1.395
		c-0.019,0.034-0.039,0.073-0.053,0.111c-0.097,0.271-0.344,0.455-0.634,0.465c-0.024,0.005-0.048,0.005-0.073,0.005
		c-0.266,0.019-0.504-0.121-0.605-0.344c-0.305-0.659-0.847-1.157-1.535-1.404c-0.692-0.247-1.433-0.208-2.077,0.102l-0.707,0.329
		c-0.659,0.305-1.157,0.852-1.404,1.54c-0.247,0.688-0.208,1.429,0.107,2.077c0.111,0.237,0.063,0.508-0.116,0.712
		c-0.024,0.019-0.048,0.053-0.073,0.087c-0.189,0.184-0.484,0.237-0.76,0.145c-1.404-0.489-2.891,0.223-3.385,1.617l-0.286,0.814
		c-0.247,0.688-0.208,1.419,0.102,2.073c0.31,0.649,0.852,1.138,1.516,1.366c0.266,0.097,0.436,0.339,0.455,0.644
		c0.005,0.024,0.005,0.053,0.01,0.077c-0.01,0.271-0.16,0.504-0.368,0.605c-0.01,0.005-0.087,0.039-0.097,0.044
		c-1.303,0.62-1.86,2.184-1.24,3.487l0.431,0.896c0.61,1.298,2.169,1.85,3.477,1.245c0.034-0.015,0.068-0.034,0.102-0.058
		c0.257-0.092,0.538-0.029,0.755,0.16c0.015,0.015,0.029,0.024,0.044,0.039c0.184,0.189,0.252,0.475,0.165,0.731
		c-0.039,0.116-0.053,0.232-0.048,0.349c0.034,0.591,0.242,2.557,1.632,3.041l0.949,0.32c0.286,0.097,0.576,0.145,0.857,0.145
		c1.061,0,2.048-0.644,2.436-1.671c0.01-0.024,0.019-0.044,0.029-0.068c0.097-0.271,0.349-0.465,0.61-0.47
		c0.034,0,0.073-0.005,0.111-0.01c0.257,0,0.508,0.165,0.62,0.397c0.3,0.634,0.833,1.114,1.492,1.346
		c0.663,0.237,1.38,0.199,2.01-0.102l0.896-0.426c0.639-0.3,1.119-0.833,1.346-1.496c0.228-0.659,0.184-1.366-0.116-1.966
		c-0.126-0.266-0.073-0.576,0.131-0.809c0.015-0.015,0.034-0.039,0.048-0.068c0.184-0.169,0.45-0.232,0.702-0.169
		c0.019,0.005,0.034,0.015,0.053,0.019c0.663,0.228,1.375,0.189,2.01-0.121c0.62-0.3,1.085-0.823,1.303-1.458l0.354-0.964
		C60.586,50.627,60.547,49.925,60.252,49.305z M58.567,50.651l-0.354,0.964c-0.058,0.165-0.179,0.3-0.339,0.383
		c-0.16,0.077-0.339,0.092-0.508,0.044c-0.024-0.01-0.048-0.019-0.077-0.029c-1.007-0.329-2.107-0.039-2.804,0.741
		c-0.024,0.024-0.048,0.063-0.073,0.097c-0.659,0.799-0.804,1.893-0.363,2.833c0.082,0.16,0.092,0.344,0.034,0.513
		c-0.063,0.179-0.194,0.32-0.363,0.402l-0.901,0.426c-0.174,0.082-0.368,0.092-0.552,0.029c-0.184-0.068-0.329-0.194-0.412-0.373
		c-0.46-0.949-1.462-1.55-2.508-1.477c-0.029,0-0.058,0.005-0.092,0.01c-0.978,0.063-1.86,0.717-2.228,1.651
		c-0.015,0.034-0.029,0.063-0.039,0.097c-0.121,0.354-0.523,0.542-0.901,0.412l-0.906-0.3c-0.15-0.121-0.32-0.692-0.373-1.215
		c0.223-0.93-0.073-1.923-0.789-2.571c-0.024-0.019-0.048-0.039-0.077-0.058c-0.799-0.673-1.908-0.828-2.843-0.387
		c-0.029,0.015-0.063,0.034-0.097,0.053c-0.349,0.126-0.726-0.024-0.886-0.358l-0.431-0.901c-0.165-0.354-0.015-0.78,0.3-0.935
		c0.015-0.005,0.092-0.039,0.107-0.044c0.954-0.46,1.535-1.438,1.482-2.499c-0.005-0.058-0.015-0.111-0.024-0.165
		c-0.111-1.002-0.765-1.85-1.705-2.189c-0.194-0.068-0.349-0.208-0.436-0.392c-0.092-0.194-0.102-0.407-0.029-0.61l0.291-0.818
		c0.14-0.402,0.557-0.596,0.973-0.455c1.027,0.349,2.14,0.063,2.838-0.717c0.024-0.029,0.053-0.068,0.082-0.111
		c0.644-0.765,0.789-1.826,0.363-2.736c-0.092-0.194-0.107-0.412-0.029-0.62c0.073-0.199,0.218-0.358,0.412-0.45l0.717-0.339
		c0.194-0.092,0.416-0.102,0.62-0.029c0.203,0.073,0.363,0.218,0.45,0.407c0.426,0.935,1.385,1.511,2.431,1.453
		c0.024,0,0.053,0,0.077-0.005c1.022-0.053,1.913-0.688,2.291-1.632c0.024-0.044,0.044-0.087,0.058-0.136
		c0.063-0.17,0.184-0.31,0.349-0.387c0.169-0.077,0.368-0.092,0.538-0.029l0.959,0.344c0.17,0.058,0.31,0.184,0.387,0.349
		c0.077,0.169,0.092,0.363,0.029,0.542c-0.015,0.044-0.029,0.092-0.034,0.14c-0.3,0.964,0,2.044,0.76,2.726
		c0.024,0.015,0.044,0.034,0.073,0.053c0.794,0.678,1.898,0.823,2.828,0.378c0.174-0.082,0.368-0.092,0.547-0.029
		c0.179,0.063,0.32,0.194,0.402,0.363l0.426,0.901c0.044,0.097,0.068,0.203,0.068,0.305c0,0.087-0.015,0.165-0.044,0.242
		c-0.039,0.111-0.131,0.257-0.354,0.354c-0.954,0.45-1.54,1.414-1.496,2.465c-0.005,0.039-0.005,0.073,0,0.111
		c0.068,1.056,0.746,1.966,1.753,2.334c0.169,0.053,0.305,0.179,0.383,0.344C58.61,50.293,58.62,50.487,58.567,50.651z
		 M46.387,42.385c-2.993,1.429-4.271,5.031-2.847,8.034c1.031,2.16,3.196,3.429,5.453,3.429c0.867,0,1.748-0.189,2.581-0.586
		c0.731-0.344,1.37-0.823,1.898-1.409c0.523-0.581,0.93-1.269,1.201-2.029c0.533-1.516,0.446-3.148-0.252-4.591
		C52.993,42.24,49.39,40.961,46.387,42.385z M52.877,49.189c-0.368,1.046-1.119,1.879-2.121,2.354
		c-2.053,0.978-4.523,0.107-5.496-1.942c-0.973-2.053-0.097-4.518,1.947-5.496c0.571-0.271,1.172-0.397,1.763-0.397
		c1.545,0,3.031,0.867,3.738,2.354C53.182,47.044,53.24,48.157,52.877,49.189z M54.421,45.232c-1.429-2.993-5.031-4.271-8.034-2.847
		c-2.993,1.429-4.271,5.031-2.847,8.034c1.031,2.16,3.196,3.429,5.453,3.429c0.867,0,1.748-0.189,2.581-0.586
		c0.731-0.344,1.37-0.823,1.898-1.409c0.523-0.581,0.93-1.269,1.201-2.029C55.206,48.307,55.119,46.676,54.421,45.232z
		 M52.877,49.189c-0.368,1.046-1.119,1.879-2.121,2.354c-2.053,0.978-4.523,0.107-5.496-1.942c-0.973-2.053-0.097-4.518,1.947-5.496
		c0.571-0.271,1.172-0.397,1.763-0.397c1.545,0,3.031,0.867,3.738,2.354C53.182,47.044,53.24,48.157,52.877,49.189z M54.421,45.232
		c-1.429-2.993-5.031-4.271-8.034-2.847c-2.993,1.429-4.271,5.031-2.847,8.034c1.031,2.16,3.196,3.429,5.453,3.429
		c0.867,0,1.748-0.189,2.581-0.586c0.731-0.344,1.37-0.823,1.898-1.409c0.523-0.581,0.93-1.269,1.201-2.029
		C55.206,48.307,55.119,46.676,54.421,45.232z M52.877,49.189c-0.368,1.046-1.119,1.879-2.121,2.354
		c-2.053,0.978-4.523,0.107-5.496-1.942c-0.973-2.053-0.097-4.518,1.947-5.496c0.571-0.271,1.172-0.397,1.763-0.397
		c1.545,0,3.031,0.867,3.738,2.354C53.182,47.044,53.24,48.157,52.877,49.189z M54.421,45.232c-1.429-2.993-5.031-4.271-8.034-2.847
		c-2.993,1.429-4.271,5.031-2.847,8.034c1.031,2.16,3.196,3.429,5.453,3.429c0.867,0,1.748-0.189,2.581-0.586
		c0.731-0.344,1.37-0.823,1.898-1.409c0.523-0.581,0.93-1.269,1.201-2.029C55.206,48.307,55.119,46.676,54.421,45.232z
		 M52.877,49.189c-0.368,1.046-1.119,1.879-2.121,2.354c-2.053,0.978-4.523,0.107-5.496-1.942c-0.973-2.053-0.097-4.518,1.947-5.496
		c0.571-0.271,1.172-0.397,1.763-0.397c1.545,0,3.031,0.867,3.738,2.354C53.182,47.044,53.24,48.157,52.877,49.189z M13.085,49.218
		c-0.102-0.237-0.247-0.446-0.431-0.63c-0.189-0.179-0.416-0.339-0.683-0.479c-0.266-0.136-0.567-0.261-0.901-0.383
		c-0.242-0.087-0.446-0.174-0.61-0.266c-0.165-0.087-0.295-0.179-0.397-0.276c-0.097-0.102-0.165-0.208-0.208-0.324
		c-0.044-0.121-0.063-0.252-0.063-0.397c0-0.15,0.019-0.291,0.063-0.421c0.044-0.126,0.107-0.237,0.194-0.329
		c0.087-0.092,0.199-0.165,0.329-0.213c0.131-0.053,0.291-0.077,0.475-0.077c0.17,0,0.32,0.034,0.455,0.097
		c0.136,0.068,0.252,0.16,0.344,0.281c0.092,0.121,0.165,0.266,0.213,0.441c0.053,0.174,0.077,0.368,0.077,0.586h1.254
		c0-0.349-0.044-0.663-0.126-0.939c-0.087-0.281-0.213-0.523-0.378-0.731c-0.16-0.203-0.358-0.368-0.591-0.494
		c-0.237-0.131-0.499-0.213-0.794-0.252v-1.143h-0.828v1.128c-0.3,0.039-0.567,0.111-0.809,0.223
		c-0.237,0.107-0.441,0.252-0.61,0.431c-0.169,0.179-0.3,0.387-0.392,0.63c-0.092,0.237-0.136,0.504-0.136,0.794
		c0,0.324,0.048,0.605,0.155,0.847c0.102,0.237,0.252,0.45,0.441,0.634c0.189,0.184,0.421,0.344,0.692,0.479
		c0.266,0.136,0.567,0.262,0.901,0.378c0.228,0.077,0.421,0.16,0.581,0.247c0.16,0.087,0.291,0.179,0.387,0.281
		c0.097,0.102,0.17,0.213,0.213,0.334c0.048,0.121,0.068,0.252,0.068,0.397c0,0.315-0.102,0.571-0.305,0.76
		c-0.208,0.189-0.508,0.286-0.901,0.286c-0.155,0-0.305-0.024-0.455-0.068c-0.15-0.044-0.286-0.116-0.407-0.218
		c-0.121-0.107-0.213-0.247-0.291-0.421c-0.073-0.179-0.111-0.397-0.111-0.663H8.242c0,0.402,0.058,0.751,0.179,1.041
		c0.116,0.286,0.276,0.528,0.475,0.717c0.194,0.189,0.421,0.329,0.678,0.431c0.257,0.102,0.523,0.165,0.799,0.199v1.007h0.828
		v-1.012c0.305-0.034,0.586-0.102,0.838-0.203c0.252-0.107,0.465-0.247,0.639-0.421c0.179-0.174,0.315-0.383,0.412-0.625
		c0.097-0.242,0.145-0.513,0.145-0.818C13.235,49.741,13.186,49.46,13.085,49.218z M13.085,49.218
		c-0.102-0.237-0.247-0.446-0.431-0.63c-0.189-0.179-0.416-0.339-0.683-0.479c-0.266-0.136-0.567-0.261-0.901-0.383
		c-0.242-0.087-0.446-0.174-0.61-0.266c-0.165-0.087-0.295-0.179-0.397-0.276c-0.097-0.102-0.165-0.208-0.208-0.324
		c-0.044-0.121-0.063-0.252-0.063-0.397c0-0.15,0.019-0.291,0.063-0.421c0.044-0.126,0.107-0.237,0.194-0.329
		c0.087-0.092,0.199-0.165,0.329-0.213c0.131-0.053,0.291-0.077,0.475-0.077c0.17,0,0.32,0.034,0.455,0.097
		c0.136,0.068,0.252,0.16,0.344,0.281c0.092,0.121,0.165,0.266,0.213,0.441c0.053,0.174,0.077,0.368,0.077,0.586h1.254
		c0-0.349-0.044-0.663-0.126-0.939c-0.087-0.281-0.213-0.523-0.378-0.731c-0.16-0.203-0.358-0.368-0.591-0.494
		c-0.237-0.131-0.499-0.213-0.794-0.252v-1.143h-0.828v1.128c-0.3,0.039-0.567,0.111-0.809,0.223
		c-0.237,0.107-0.441,0.252-0.61,0.431c-0.169,0.179-0.3,0.387-0.392,0.63c-0.092,0.237-0.136,0.504-0.136,0.794
		c0,0.324,0.048,0.605,0.155,0.847c0.102,0.237,0.252,0.45,0.441,0.634c0.189,0.184,0.421,0.344,0.692,0.479
		c0.266,0.136,0.567,0.262,0.901,0.378c0.228,0.077,0.421,0.16,0.581,0.247c0.16,0.087,0.291,0.179,0.387,0.281
		c0.097,0.102,0.17,0.213,0.213,0.334c0.048,0.121,0.068,0.252,0.068,0.397c0,0.315-0.102,0.571-0.305,0.76
		c-0.208,0.189-0.508,0.286-0.901,0.286c-0.155,0-0.305-0.024-0.455-0.068c-0.15-0.044-0.286-0.116-0.407-0.218
		c-0.121-0.107-0.213-0.247-0.291-0.421c-0.073-0.179-0.111-0.397-0.111-0.663H8.242c0,0.402,0.058,0.751,0.179,1.041
		c0.116,0.286,0.276,0.528,0.475,0.717c0.194,0.189,0.421,0.329,0.678,0.431c0.257,0.102,0.523,0.165,0.799,0.199v1.007h0.828
		v-1.012c0.305-0.034,0.586-0.102,0.838-0.203c0.252-0.107,0.465-0.247,0.639-0.421c0.179-0.174,0.315-0.383,0.412-0.625
		c0.097-0.242,0.145-0.513,0.145-0.818C13.235,49.741,13.186,49.46,13.085,49.218z M13.085,49.218
		c-0.102-0.237-0.247-0.446-0.431-0.63c-0.189-0.179-0.416-0.339-0.683-0.479c-0.266-0.136-0.567-0.261-0.901-0.383
		c-0.242-0.087-0.446-0.174-0.61-0.266c-0.165-0.087-0.295-0.179-0.397-0.276c-0.097-0.102-0.165-0.208-0.208-0.324
		c-0.044-0.121-0.063-0.252-0.063-0.397c0-0.15,0.019-0.291,0.063-0.421c0.044-0.126,0.107-0.237,0.194-0.329
		c0.087-0.092,0.199-0.165,0.329-0.213c0.131-0.053,0.291-0.077,0.475-0.077c0.17,0,0.32,0.034,0.455,0.097
		c0.136,0.068,0.252,0.16,0.344,0.281c0.092,0.121,0.165,0.266,0.213,0.441c0.053,0.174,0.077,0.368,0.077,0.586h1.254
		c0-0.349-0.044-0.663-0.126-0.939c-0.087-0.281-0.213-0.523-0.378-0.731c-0.16-0.203-0.358-0.368-0.591-0.494
		c-0.237-0.131-0.499-0.213-0.794-0.252v-1.143h-0.828v1.128c-0.3,0.039-0.567,0.111-0.809,0.223
		c-0.237,0.107-0.441,0.252-0.61,0.431c-0.169,0.179-0.3,0.387-0.392,0.63c-0.092,0.237-0.136,0.504-0.136,0.794
		c0,0.324,0.048,0.605,0.155,0.847c0.102,0.237,0.252,0.45,0.441,0.634c0.189,0.184,0.421,0.344,0.692,0.479
		c0.266,0.136,0.567,0.262,0.901,0.378c0.228,0.077,0.421,0.16,0.581,0.247c0.16,0.087,0.291,0.179,0.387,0.281
		c0.097,0.102,0.17,0.213,0.213,0.334c0.048,0.121,0.068,0.252,0.068,0.397c0,0.315-0.102,0.571-0.305,0.76
		c-0.208,0.189-0.508,0.286-0.901,0.286c-0.155,0-0.305-0.024-0.455-0.068c-0.15-0.044-0.286-0.116-0.407-0.218
		c-0.121-0.107-0.213-0.247-0.291-0.421c-0.073-0.179-0.111-0.397-0.111-0.663H8.242c0,0.402,0.058,0.751,0.179,1.041
		c0.116,0.286,0.276,0.528,0.475,0.717c0.194,0.189,0.421,0.329,0.678,0.431c0.257,0.102,0.523,0.165,0.799,0.199v1.007h0.828
		v-1.012c0.305-0.034,0.586-0.102,0.838-0.203c0.252-0.107,0.465-0.247,0.639-0.421c0.179-0.174,0.315-0.383,0.412-0.625
		c0.097-0.242,0.145-0.513,0.145-0.818C13.235,49.741,13.186,49.46,13.085,49.218z M13.085,49.218
		c-0.102-0.237-0.247-0.446-0.431-0.63c-0.189-0.179-0.416-0.339-0.683-0.479c-0.266-0.136-0.567-0.261-0.901-0.383
		c-0.242-0.087-0.446-0.174-0.61-0.266c-0.165-0.087-0.295-0.179-0.397-0.276c-0.097-0.102-0.165-0.208-0.208-0.324
		c-0.044-0.121-0.063-0.252-0.063-0.397c0-0.15,0.019-0.291,0.063-0.421c0.044-0.126,0.107-0.237,0.194-0.329
		c0.087-0.092,0.199-0.165,0.329-0.213c0.131-0.053,0.291-0.077,0.475-0.077c0.17,0,0.32,0.034,0.455,0.097
		c0.136,0.068,0.252,0.16,0.344,0.281c0.092,0.121,0.165,0.266,0.213,0.441c0.053,0.174,0.077,0.368,0.077,0.586h1.254
		c0-0.349-0.044-0.663-0.126-0.939c-0.087-0.281-0.213-0.523-0.378-0.731c-0.16-0.203-0.358-0.368-0.591-0.494
		c-0.237-0.131-0.499-0.213-0.794-0.252v-1.143h-0.828v1.128c-0.3,0.039-0.567,0.111-0.809,0.223
		c-0.237,0.107-0.441,0.252-0.61,0.431c-0.169,0.179-0.3,0.387-0.392,0.63c-0.092,0.237-0.136,0.504-0.136,0.794
		c0,0.324,0.048,0.605,0.155,0.847c0.102,0.237,0.252,0.45,0.441,0.634c0.189,0.184,0.421,0.344,0.692,0.479
		c0.266,0.136,0.567,0.262,0.901,0.378c0.228,0.077,0.421,0.16,0.581,0.247c0.16,0.087,0.291,0.179,0.387,0.281
		c0.097,0.102,0.17,0.213,0.213,0.334c0.048,0.121,0.068,0.252,0.068,0.397c0,0.315-0.102,0.571-0.305,0.76
		c-0.208,0.189-0.508,0.286-0.901,0.286c-0.155,0-0.305-0.024-0.455-0.068c-0.15-0.044-0.286-0.116-0.407-0.218
		c-0.121-0.107-0.213-0.247-0.291-0.421c-0.073-0.179-0.111-0.397-0.111-0.663H8.242c0,0.402,0.058,0.751,0.179,1.041
		c0.116,0.286,0.276,0.528,0.475,0.717c0.194,0.189,0.421,0.329,0.678,0.431c0.257,0.102,0.523,0.165,0.799,0.199v1.007h0.828
		v-1.012c0.305-0.034,0.586-0.102,0.838-0.203c0.252-0.107,0.465-0.247,0.639-0.421c0.179-0.174,0.315-0.383,0.412-0.625
		c0.097-0.242,0.145-0.513,0.145-0.818C13.235,49.741,13.186,49.46,13.085,49.218z M10.804,40.477c-4.242,0-7.7,3.453-7.7,7.7
		c0,4.247,3.458,7.7,7.7,7.7c4.247,0,7.7-3.453,7.7-7.7C18.504,43.93,15.051,40.477,10.804,40.477z M10.804,53.973
		c-3.196,0-5.797-2.6-5.797-5.797c0-3.196,2.6-5.797,5.797-5.797c3.196,0,5.797,2.6,5.797,5.797
		C16.6,51.373,14,53.973,10.804,53.973z M12.654,48.588c-0.189-0.179-0.416-0.339-0.683-0.479c-0.266-0.136-0.567-0.261-0.901-0.383
		c-0.242-0.087-0.446-0.174-0.61-0.266c-0.165-0.087-0.295-0.179-0.397-0.276c-0.097-0.102-0.165-0.208-0.208-0.324
		c-0.044-0.121-0.063-0.252-0.063-0.397c0-0.15,0.019-0.291,0.063-0.421c0.044-0.126,0.107-0.237,0.194-0.329
		c0.087-0.092,0.199-0.165,0.329-0.213c0.131-0.053,0.291-0.077,0.475-0.077c0.17,0,0.32,0.034,0.455,0.097
		c0.136,0.068,0.252,0.16,0.344,0.281c0.092,0.121,0.165,0.266,0.213,0.441c0.053,0.174,0.077,0.368,0.077,0.586h1.254
		c0-0.349-0.044-0.663-0.126-0.939c-0.087-0.281-0.213-0.523-0.378-0.731c-0.16-0.203-0.358-0.368-0.591-0.494
		c-0.237-0.131-0.499-0.213-0.794-0.252v-1.143h-0.828v1.128c-0.3,0.039-0.567,0.111-0.809,0.223
		c-0.237,0.107-0.441,0.252-0.61,0.431c-0.169,0.179-0.3,0.387-0.392,0.63c-0.092,0.237-0.136,0.504-0.136,0.794
		c0,0.324,0.048,0.605,0.155,0.847c0.102,0.237,0.252,0.45,0.441,0.634c0.189,0.184,0.421,0.344,0.692,0.479
		c0.266,0.136,0.567,0.262,0.901,0.378c0.228,0.077,0.421,0.16,0.581,0.247c0.16,0.087,0.291,0.179,0.387,0.281
		c0.097,0.102,0.17,0.213,0.213,0.334c0.048,0.121,0.068,0.252,0.068,0.397c0,0.315-0.102,0.571-0.305,0.76
		c-0.208,0.189-0.508,0.286-0.901,0.286c-0.155,0-0.305-0.024-0.455-0.068c-0.15-0.044-0.286-0.116-0.407-0.218
		c-0.121-0.107-0.213-0.247-0.291-0.421c-0.073-0.179-0.111-0.397-0.111-0.663H8.242c0,0.402,0.058,0.751,0.179,1.041
		c0.116,0.286,0.276,0.528,0.475,0.717c0.194,0.189,0.421,0.329,0.678,0.431c0.257,0.102,0.523,0.165,0.799,0.199v1.007h0.828
		v-1.012c0.305-0.034,0.586-0.102,0.838-0.203c0.252-0.107,0.465-0.247,0.639-0.421c0.179-0.174,0.315-0.383,0.412-0.625
		c0.097-0.242,0.145-0.513,0.145-0.818c0-0.32-0.048-0.601-0.15-0.843C12.983,48.981,12.838,48.772,12.654,48.588z M13.085,49.218
		c-0.102-0.237-0.247-0.446-0.431-0.63c-0.189-0.179-0.416-0.339-0.683-0.479c-0.266-0.136-0.567-0.261-0.901-0.383
		c-0.242-0.087-0.446-0.174-0.61-0.266c-0.165-0.087-0.295-0.179-0.397-0.276c-0.097-0.102-0.165-0.208-0.208-0.324
		c-0.044-0.121-0.063-0.252-0.063-0.397c0-0.15,0.019-0.291,0.063-0.421c0.044-0.126,0.107-0.237,0.194-0.329
		c0.087-0.092,0.199-0.165,0.329-0.213c0.131-0.053,0.291-0.077,0.475-0.077c0.17,0,0.32,0.034,0.455,0.097
		c0.136,0.068,0.252,0.16,0.344,0.281c0.092,0.121,0.165,0.266,0.213,0.441c0.053,0.174,0.077,0.368,0.077,0.586h1.254
		c0-0.349-0.044-0.663-0.126-0.939c-0.087-0.281-0.213-0.523-0.378-0.731c-0.16-0.203-0.358-0.368-0.591-0.494
		c-0.237-0.131-0.499-0.213-0.794-0.252v-1.143h-0.828v1.128c-0.3,0.039-0.567,0.111-0.809,0.223
		c-0.237,0.107-0.441,0.252-0.61,0.431c-0.169,0.179-0.3,0.387-0.392,0.63c-0.092,0.237-0.136,0.504-0.136,0.794
		c0,0.324,0.048,0.605,0.155,0.847c0.102,0.237,0.252,0.45,0.441,0.634c0.189,0.184,0.421,0.344,0.692,0.479
		c0.266,0.136,0.567,0.262,0.901,0.378c0.228,0.077,0.421,0.16,0.581,0.247c0.16,0.087,0.291,0.179,0.387,0.281
		c0.097,0.102,0.17,0.213,0.213,0.334c0.048,0.121,0.068,0.252,0.068,0.397c0,0.315-0.102,0.571-0.305,0.76
		c-0.208,0.189-0.508,0.286-0.901,0.286c-0.155,0-0.305-0.024-0.455-0.068c-0.15-0.044-0.286-0.116-0.407-0.218
		c-0.121-0.107-0.213-0.247-0.291-0.421c-0.073-0.179-0.111-0.397-0.111-0.663H8.242c0,0.402,0.058,0.751,0.179,1.041
		c0.116,0.286,0.276,0.528,0.475,0.717c0.194,0.189,0.421,0.329,0.678,0.431c0.257,0.102,0.523,0.165,0.799,0.199v1.007h0.828
		v-1.012c0.305-0.034,0.586-0.102,0.838-0.203c0.252-0.107,0.465-0.247,0.639-0.421c0.179-0.174,0.315-0.383,0.412-0.625
		c0.097-0.242,0.145-0.513,0.145-0.818C13.235,49.741,13.186,49.46,13.085,49.218z M13.085,49.218
		c-0.102-0.237-0.247-0.446-0.431-0.63c-0.189-0.179-0.416-0.339-0.683-0.479c-0.266-0.136-0.567-0.261-0.901-0.383
		c-0.242-0.087-0.446-0.174-0.61-0.266c-0.165-0.087-0.295-0.179-0.397-0.276c-0.097-0.102-0.165-0.208-0.208-0.324
		c-0.044-0.121-0.063-0.252-0.063-0.397c0-0.15,0.019-0.291,0.063-0.421c0.044-0.126,0.107-0.237,0.194-0.329
		c0.087-0.092,0.199-0.165,0.329-0.213c0.131-0.053,0.291-0.077,0.475-0.077c0.17,0,0.32,0.034,0.455,0.097
		c0.136,0.068,0.252,0.16,0.344,0.281c0.092,0.121,0.165,0.266,0.213,0.441c0.053,0.174,0.077,0.368,0.077,0.586h1.254
		c0-0.349-0.044-0.663-0.126-0.939c-0.087-0.281-0.213-0.523-0.378-0.731c-0.16-0.203-0.358-0.368-0.591-0.494
		c-0.237-0.131-0.499-0.213-0.794-0.252v-1.143h-0.828v1.128c-0.3,0.039-0.567,0.111-0.809,0.223
		c-0.237,0.107-0.441,0.252-0.61,0.431c-0.169,0.179-0.3,0.387-0.392,0.63c-0.092,0.237-0.136,0.504-0.136,0.794
		c0,0.324,0.048,0.605,0.155,0.847c0.102,0.237,0.252,0.45,0.441,0.634c0.189,0.184,0.421,0.344,0.692,0.479
		c0.266,0.136,0.567,0.262,0.901,0.378c0.228,0.077,0.421,0.16,0.581,0.247c0.16,0.087,0.291,0.179,0.387,0.281
		c0.097,0.102,0.17,0.213,0.213,0.334c0.048,0.121,0.068,0.252,0.068,0.397c0,0.315-0.102,0.571-0.305,0.76
		c-0.208,0.189-0.508,0.286-0.901,0.286c-0.155,0-0.305-0.024-0.455-0.068c-0.15-0.044-0.286-0.116-0.407-0.218
		c-0.121-0.107-0.213-0.247-0.291-0.421c-0.073-0.179-0.111-0.397-0.111-0.663H8.242c0,0.402,0.058,0.751,0.179,1.041
		c0.116,0.286,0.276,0.528,0.475,0.717c0.194,0.189,0.421,0.329,0.678,0.431c0.257,0.102,0.523,0.165,0.799,0.199v1.007h0.828
		v-1.012c0.305-0.034,0.586-0.102,0.838-0.203c0.252-0.107,0.465-0.247,0.639-0.421c0.179-0.174,0.315-0.383,0.412-0.625
		c0.097-0.242,0.145-0.513,0.145-0.818C13.235,49.741,13.186,49.46,13.085,49.218z M13.085,49.218
		c-0.102-0.237-0.247-0.446-0.431-0.63c-0.189-0.179-0.416-0.339-0.683-0.479c-0.266-0.136-0.567-0.261-0.901-0.383
		c-0.242-0.087-0.446-0.174-0.61-0.266c-0.165-0.087-0.295-0.179-0.397-0.276c-0.097-0.102-0.165-0.208-0.208-0.324
		c-0.044-0.121-0.063-0.252-0.063-0.397c0-0.15,0.019-0.291,0.063-0.421c0.044-0.126,0.107-0.237,0.194-0.329
		c0.087-0.092,0.199-0.165,0.329-0.213c0.131-0.053,0.291-0.077,0.475-0.077c0.17,0,0.32,0.034,0.455,0.097
		c0.136,0.068,0.252,0.16,0.344,0.281c0.092,0.121,0.165,0.266,0.213,0.441c0.053,0.174,0.077,0.368,0.077,0.586h1.254
		c0-0.349-0.044-0.663-0.126-0.939c-0.087-0.281-0.213-0.523-0.378-0.731c-0.16-0.203-0.358-0.368-0.591-0.494
		c-0.237-0.131-0.499-0.213-0.794-0.252v-1.143h-0.828v1.128c-0.3,0.039-0.567,0.111-0.809,0.223
		c-0.237,0.107-0.441,0.252-0.61,0.431c-0.169,0.179-0.3,0.387-0.392,0.63c-0.092,0.237-0.136,0.504-0.136,0.794
		c0,0.324,0.048,0.605,0.155,0.847c0.102,0.237,0.252,0.45,0.441,0.634c0.189,0.184,0.421,0.344,0.692,0.479
		c0.266,0.136,0.567,0.262,0.901,0.378c0.228,0.077,0.421,0.16,0.581,0.247c0.16,0.087,0.291,0.179,0.387,0.281
		c0.097,0.102,0.17,0.213,0.213,0.334c0.048,0.121,0.068,0.252,0.068,0.397c0,0.315-0.102,0.571-0.305,0.76
		c-0.208,0.189-0.508,0.286-0.901,0.286c-0.155,0-0.305-0.024-0.455-0.068c-0.15-0.044-0.286-0.116-0.407-0.218
		c-0.121-0.107-0.213-0.247-0.291-0.421c-0.073-0.179-0.111-0.397-0.111-0.663H8.242c0,0.402,0.058,0.751,0.179,1.041
		c0.116,0.286,0.276,0.528,0.475,0.717c0.194,0.189,0.421,0.329,0.678,0.431c0.257,0.102,0.523,0.165,0.799,0.199v1.007h0.828
		v-1.012c0.305-0.034,0.586-0.102,0.838-0.203c0.252-0.107,0.465-0.247,0.639-0.421c0.179-0.174,0.315-0.383,0.412-0.625
		c0.097-0.242,0.145-0.513,0.145-0.818C13.235,49.741,13.186,49.46,13.085,49.218z M13.085,49.218
		c-0.102-0.237-0.247-0.446-0.431-0.63c-0.189-0.179-0.416-0.339-0.683-0.479c-0.266-0.136-0.567-0.261-0.901-0.383
		c-0.242-0.087-0.446-0.174-0.61-0.266c-0.165-0.087-0.295-0.179-0.397-0.276c-0.097-0.102-0.165-0.208-0.208-0.324
		c-0.044-0.121-0.063-0.252-0.063-0.397c0-0.15,0.019-0.291,0.063-0.421c0.044-0.126,0.107-0.237,0.194-0.329
		c0.087-0.092,0.199-0.165,0.329-0.213c0.131-0.053,0.291-0.077,0.475-0.077c0.17,0,0.32,0.034,0.455,0.097
		c0.136,0.068,0.252,0.16,0.344,0.281c0.092,0.121,0.165,0.266,0.213,0.441c0.053,0.174,0.077,0.368,0.077,0.586h1.254
		c0-0.349-0.044-0.663-0.126-0.939c-0.087-0.281-0.213-0.523-0.378-0.731c-0.16-0.203-0.358-0.368-0.591-0.494
		c-0.237-0.131-0.499-0.213-0.794-0.252v-1.143h-0.828v1.128c-0.3,0.039-0.567,0.111-0.809,0.223
		c-0.237,0.107-0.441,0.252-0.61,0.431c-0.169,0.179-0.3,0.387-0.392,0.63c-0.092,0.237-0.136,0.504-0.136,0.794
		c0,0.324,0.048,0.605,0.155,0.847c0.102,0.237,0.252,0.45,0.441,0.634c0.189,0.184,0.421,0.344,0.692,0.479
		c0.266,0.136,0.567,0.262,0.901,0.378c0.228,0.077,0.421,0.16,0.581,0.247c0.16,0.087,0.291,0.179,0.387,0.281
		c0.097,0.102,0.17,0.213,0.213,0.334c0.048,0.121,0.068,0.252,0.068,0.397c0,0.315-0.102,0.571-0.305,0.76
		c-0.208,0.189-0.508,0.286-0.901,0.286c-0.155,0-0.305-0.024-0.455-0.068c-0.15-0.044-0.286-0.116-0.407-0.218
		c-0.121-0.107-0.213-0.247-0.291-0.421c-0.073-0.179-0.111-0.397-0.111-0.663H8.242c0,0.402,0.058,0.751,0.179,1.041
		c0.116,0.286,0.276,0.528,0.475,0.717c0.194,0.189,0.421,0.329,0.678,0.431c0.257,0.102,0.523,0.165,0.799,0.199v1.007h0.828
		v-1.012c0.305-0.034,0.586-0.102,0.838-0.203c0.252-0.107,0.465-0.247,0.639-0.421c0.179-0.174,0.315-0.383,0.412-0.625
		c0.097-0.242,0.145-0.513,0.145-0.818C13.235,49.741,13.186,49.46,13.085,49.218z M13.085,49.218
		c-0.102-0.237-0.247-0.446-0.431-0.63c-0.189-0.179-0.416-0.339-0.683-0.479c-0.266-0.136-0.567-0.261-0.901-0.383
		c-0.242-0.087-0.446-0.174-0.61-0.266c-0.165-0.087-0.295-0.179-0.397-0.276c-0.097-0.102-0.165-0.208-0.208-0.324
		c-0.044-0.121-0.063-0.252-0.063-0.397c0-0.15,0.019-0.291,0.063-0.421c0.044-0.126,0.107-0.237,0.194-0.329
		c0.087-0.092,0.199-0.165,0.329-0.213c0.131-0.053,0.291-0.077,0.475-0.077c0.17,0,0.32,0.034,0.455,0.097
		c0.136,0.068,0.252,0.16,0.344,0.281c0.092,0.121,0.165,0.266,0.213,0.441c0.053,0.174,0.077,0.368,0.077,0.586h1.254
		c0-0.349-0.044-0.663-0.126-0.939c-0.087-0.281-0.213-0.523-0.378-0.731c-0.16-0.203-0.358-0.368-0.591-0.494
		c-0.237-0.131-0.499-0.213-0.794-0.252v-1.143h-0.828v1.128c-0.3,0.039-0.567,0.111-0.809,0.223
		c-0.237,0.107-0.441,0.252-0.61,0.431c-0.169,0.179-0.3,0.387-0.392,0.63c-0.092,0.237-0.136,0.504-0.136,0.794
		c0,0.324,0.048,0.605,0.155,0.847c0.102,0.237,0.252,0.45,0.441,0.634c0.189,0.184,0.421,0.344,0.692,0.479
		c0.266,0.136,0.567,0.262,0.901,0.378c0.228,0.077,0.421,0.16,0.581,0.247c0.16,0.087,0.291,0.179,0.387,0.281
		c0.097,0.102,0.17,0.213,0.213,0.334c0.048,0.121,0.068,0.252,0.068,0.397c0,0.315-0.102,0.571-0.305,0.76
		c-0.208,0.189-0.508,0.286-0.901,0.286c-0.155,0-0.305-0.024-0.455-0.068c-0.15-0.044-0.286-0.116-0.407-0.218
		c-0.121-0.107-0.213-0.247-0.291-0.421c-0.073-0.179-0.111-0.397-0.111-0.663H8.242c0,0.402,0.058,0.751,0.179,1.041
		c0.116,0.286,0.276,0.528,0.475,0.717c0.194,0.189,0.421,0.329,0.678,0.431c0.257,0.102,0.523,0.165,0.799,0.199v1.007h0.828
		v-1.012c0.305-0.034,0.586-0.102,0.838-0.203c0.252-0.107,0.465-0.247,0.639-0.421c0.179-0.174,0.315-0.383,0.412-0.625
		c0.097-0.242,0.145-0.513,0.145-0.818C13.235,49.741,13.186,49.46,13.085,49.218z M13.085,49.218
		c-0.102-0.237-0.247-0.446-0.431-0.63c-0.189-0.179-0.416-0.339-0.683-0.479c-0.266-0.136-0.567-0.261-0.901-0.383
		c-0.242-0.087-0.446-0.174-0.61-0.266c-0.165-0.087-0.295-0.179-0.397-0.276c-0.097-0.102-0.165-0.208-0.208-0.324
		c-0.044-0.121-0.063-0.252-0.063-0.397c0-0.15,0.019-0.291,0.063-0.421c0.044-0.126,0.107-0.237,0.194-0.329
		c0.087-0.092,0.199-0.165,0.329-0.213c0.131-0.053,0.291-0.077,0.475-0.077c0.17,0,0.32,0.034,0.455,0.097
		c0.136,0.068,0.252,0.16,0.344,0.281c0.092,0.121,0.165,0.266,0.213,0.441c0.053,0.174,0.077,0.368,0.077,0.586h1.254
		c0-0.349-0.044-0.663-0.126-0.939c-0.087-0.281-0.213-0.523-0.378-0.731c-0.16-0.203-0.358-0.368-0.591-0.494
		c-0.237-0.131-0.499-0.213-0.794-0.252v-1.143h-0.828v1.128c-0.3,0.039-0.567,0.111-0.809,0.223
		c-0.237,0.107-0.441,0.252-0.61,0.431c-0.169,0.179-0.3,0.387-0.392,0.63c-0.092,0.237-0.136,0.504-0.136,0.794
		c0,0.324,0.048,0.605,0.155,0.847c0.102,0.237,0.252,0.45,0.441,0.634c0.189,0.184,0.421,0.344,0.692,0.479
		c0.266,0.136,0.567,0.262,0.901,0.378c0.228,0.077,0.421,0.16,0.581,0.247c0.16,0.087,0.291,0.179,0.387,0.281
		c0.097,0.102,0.17,0.213,0.213,0.334c0.048,0.121,0.068,0.252,0.068,0.397c0,0.315-0.102,0.571-0.305,0.76
		c-0.208,0.189-0.508,0.286-0.901,0.286c-0.155,0-0.305-0.024-0.455-0.068c-0.15-0.044-0.286-0.116-0.407-0.218
		c-0.121-0.107-0.213-0.247-0.291-0.421c-0.073-0.179-0.111-0.397-0.111-0.663H8.242c0,0.402,0.058,0.751,0.179,1.041
		c0.116,0.286,0.276,0.528,0.475,0.717c0.194,0.189,0.421,0.329,0.678,0.431c0.257,0.102,0.523,0.165,0.799,0.199v1.007h0.828
		v-1.012c0.305-0.034,0.586-0.102,0.838-0.203c0.252-0.107,0.465-0.247,0.639-0.421c0.179-0.174,0.315-0.383,0.412-0.625
		c0.097-0.242,0.145-0.513,0.145-0.818C13.235,49.741,13.186,49.46,13.085,49.218z M13.085,49.218
		c-0.102-0.237-0.247-0.446-0.431-0.63c-0.189-0.179-0.416-0.339-0.683-0.479c-0.266-0.136-0.567-0.261-0.901-0.383
		c-0.242-0.087-0.446-0.174-0.61-0.266c-0.165-0.087-0.295-0.179-0.397-0.276c-0.097-0.102-0.165-0.208-0.208-0.324
		c-0.044-0.121-0.063-0.252-0.063-0.397c0-0.15,0.019-0.291,0.063-0.421c0.044-0.126,0.107-0.237,0.194-0.329
		c0.087-0.092,0.199-0.165,0.329-0.213c0.131-0.053,0.291-0.077,0.475-0.077c0.17,0,0.32,0.034,0.455,0.097
		c0.136,0.068,0.252,0.16,0.344,0.281c0.092,0.121,0.165,0.266,0.213,0.441c0.053,0.174,0.077,0.368,0.077,0.586h1.254
		c0-0.349-0.044-0.663-0.126-0.939c-0.087-0.281-0.213-0.523-0.378-0.731c-0.16-0.203-0.358-0.368-0.591-0.494
		c-0.237-0.131-0.499-0.213-0.794-0.252v-1.143h-0.828v1.128c-0.3,0.039-0.567,0.111-0.809,0.223
		c-0.237,0.107-0.441,0.252-0.61,0.431c-0.169,0.179-0.3,0.387-0.392,0.63c-0.092,0.237-0.136,0.504-0.136,0.794
		c0,0.324,0.048,0.605,0.155,0.847c0.102,0.237,0.252,0.45,0.441,0.634c0.189,0.184,0.421,0.344,0.692,0.479
		c0.266,0.136,0.567,0.262,0.901,0.378c0.228,0.077,0.421,0.16,0.581,0.247c0.16,0.087,0.291,0.179,0.387,0.281
		c0.097,0.102,0.17,0.213,0.213,0.334c0.048,0.121,0.068,0.252,0.068,0.397c0,0.315-0.102,0.571-0.305,0.76
		c-0.208,0.189-0.508,0.286-0.901,0.286c-0.155,0-0.305-0.024-0.455-0.068c-0.15-0.044-0.286-0.116-0.407-0.218
		c-0.121-0.107-0.213-0.247-0.291-0.421c-0.073-0.179-0.111-0.397-0.111-0.663H8.242c0,0.402,0.058,0.751,0.179,1.041
		c0.116,0.286,0.276,0.528,0.475,0.717c0.194,0.189,0.421,0.329,0.678,0.431c0.257,0.102,0.523,0.165,0.799,0.199v1.007h0.828
		v-1.012c0.305-0.034,0.586-0.102,0.838-0.203c0.252-0.107,0.465-0.247,0.639-0.421c0.179-0.174,0.315-0.383,0.412-0.625
		c0.097-0.242,0.145-0.513,0.145-0.818C13.235,49.741,13.186,49.46,13.085,49.218z M10.804,40.477c-4.242,0-7.7,3.453-7.7,7.7
		c0,4.247,3.458,7.7,7.7,7.7c4.247,0,7.7-3.453,7.7-7.7C18.504,43.93,15.051,40.477,10.804,40.477z M10.804,53.973
		c-3.196,0-5.797-2.6-5.797-5.797c0-3.196,2.6-5.797,5.797-5.797c3.196,0,5.797,2.6,5.797,5.797
		C16.6,51.373,14,53.973,10.804,53.973z M12.654,48.588c-0.189-0.179-0.416-0.339-0.683-0.479c-0.266-0.136-0.567-0.261-0.901-0.383
		c-0.242-0.087-0.446-0.174-0.61-0.266c-0.165-0.087-0.295-0.179-0.397-0.276c-0.097-0.102-0.165-0.208-0.208-0.324
		c-0.044-0.121-0.063-0.252-0.063-0.397c0-0.15,0.019-0.291,0.063-0.421c0.044-0.126,0.107-0.237,0.194-0.329
		c0.087-0.092,0.199-0.165,0.329-0.213c0.131-0.053,0.291-0.077,0.475-0.077c0.17,0,0.32,0.034,0.455,0.097
		c0.136,0.068,0.252,0.16,0.344,0.281c0.092,0.121,0.165,0.266,0.213,0.441c0.053,0.174,0.077,0.368,0.077,0.586h1.254
		c0-0.349-0.044-0.663-0.126-0.939c-0.087-0.281-0.213-0.523-0.378-0.731c-0.16-0.203-0.358-0.368-0.591-0.494
		c-0.237-0.131-0.499-0.213-0.794-0.252v-1.143h-0.828v1.128c-0.3,0.039-0.567,0.111-0.809,0.223
		c-0.237,0.107-0.441,0.252-0.61,0.431c-0.169,0.179-0.3,0.387-0.392,0.63c-0.092,0.237-0.136,0.504-0.136,0.794
		c0,0.324,0.048,0.605,0.155,0.847c0.102,0.237,0.252,0.45,0.441,0.634c0.189,0.184,0.421,0.344,0.692,0.479
		c0.266,0.136,0.567,0.262,0.901,0.378c0.228,0.077,0.421,0.16,0.581,0.247c0.16,0.087,0.291,0.179,0.387,0.281
		c0.097,0.102,0.17,0.213,0.213,0.334c0.048,0.121,0.068,0.252,0.068,0.397c0,0.315-0.102,0.571-0.305,0.76
		c-0.208,0.189-0.508,0.286-0.901,0.286c-0.155,0-0.305-0.024-0.455-0.068c-0.15-0.044-0.286-0.116-0.407-0.218
		c-0.121-0.107-0.213-0.247-0.291-0.421c-0.073-0.179-0.111-0.397-0.111-0.663H8.242c0,0.402,0.058,0.751,0.179,1.041
		c0.116,0.286,0.276,0.528,0.475,0.717c0.194,0.189,0.421,0.329,0.678,0.431c0.257,0.102,0.523,0.165,0.799,0.199v1.007h0.828
		v-1.012c0.305-0.034,0.586-0.102,0.838-0.203c0.252-0.107,0.465-0.247,0.639-0.421c0.179-0.174,0.315-0.383,0.412-0.625
		c0.097-0.242,0.145-0.513,0.145-0.818c0-0.32-0.048-0.601-0.15-0.843C12.983,48.981,12.838,48.772,12.654,48.588z M13.085,49.218
		c-0.102-0.237-0.247-0.446-0.431-0.63c-0.189-0.179-0.416-0.339-0.683-0.479c-0.266-0.136-0.567-0.261-0.901-0.383
		c-0.242-0.087-0.446-0.174-0.61-0.266c-0.165-0.087-0.295-0.179-0.397-0.276c-0.097-0.102-0.165-0.208-0.208-0.324
		c-0.044-0.121-0.063-0.252-0.063-0.397c0-0.15,0.019-0.291,0.063-0.421c0.044-0.126,0.107-0.237,0.194-0.329
		c0.087-0.092,0.199-0.165,0.329-0.213c0.131-0.053,0.291-0.077,0.475-0.077c0.17,0,0.32,0.034,0.455,0.097
		c0.136,0.068,0.252,0.16,0.344,0.281c0.092,0.121,0.165,0.266,0.213,0.441c0.053,0.174,0.077,0.368,0.077,0.586h1.254
		c0-0.349-0.044-0.663-0.126-0.939c-0.087-0.281-0.213-0.523-0.378-0.731c-0.16-0.203-0.358-0.368-0.591-0.494
		c-0.237-0.131-0.499-0.213-0.794-0.252v-1.143h-0.828v1.128c-0.3,0.039-0.567,0.111-0.809,0.223
		c-0.237,0.107-0.441,0.252-0.61,0.431c-0.169,0.179-0.3,0.387-0.392,0.63c-0.092,0.237-0.136,0.504-0.136,0.794
		c0,0.324,0.048,0.605,0.155,0.847c0.102,0.237,0.252,0.45,0.441,0.634c0.189,0.184,0.421,0.344,0.692,0.479
		c0.266,0.136,0.567,0.262,0.901,0.378c0.228,0.077,0.421,0.16,0.581,0.247c0.16,0.087,0.291,0.179,0.387,0.281
		c0.097,0.102,0.17,0.213,0.213,0.334c0.048,0.121,0.068,0.252,0.068,0.397c0,0.315-0.102,0.571-0.305,0.76
		c-0.208,0.189-0.508,0.286-0.901,0.286c-0.155,0-0.305-0.024-0.455-0.068c-0.15-0.044-0.286-0.116-0.407-0.218
		c-0.121-0.107-0.213-0.247-0.291-0.421c-0.073-0.179-0.111-0.397-0.111-0.663H8.242c0,0.402,0.058,0.751,0.179,1.041
		c0.116,0.286,0.276,0.528,0.475,0.717c0.194,0.189,0.421,0.329,0.678,0.431c0.257,0.102,0.523,0.165,0.799,0.199v1.007h0.828
		v-1.012c0.305-0.034,0.586-0.102,0.838-0.203c0.252-0.107,0.465-0.247,0.639-0.421c0.179-0.174,0.315-0.383,0.412-0.625
		c0.097-0.242,0.145-0.513,0.145-0.818C13.235,49.741,13.186,49.46,13.085,49.218z M13.085,49.218
		c-0.102-0.237-0.247-0.446-0.431-0.63c-0.189-0.179-0.416-0.339-0.683-0.479c-0.266-0.136-0.567-0.261-0.901-0.383
		c-0.242-0.087-0.446-0.174-0.61-0.266c-0.165-0.087-0.295-0.179-0.397-0.276c-0.097-0.102-0.165-0.208-0.208-0.324
		c-0.044-0.121-0.063-0.252-0.063-0.397c0-0.15,0.019-0.291,0.063-0.421c0.044-0.126,0.107-0.237,0.194-0.329
		c0.087-0.092,0.199-0.165,0.329-0.213c0.131-0.053,0.291-0.077,0.475-0.077c0.17,0,0.32,0.034,0.455,0.097
		c0.136,0.068,0.252,0.16,0.344,0.281c0.092,0.121,0.165,0.266,0.213,0.441c0.053,0.174,0.077,0.368,0.077,0.586h1.254
		c0-0.349-0.044-0.663-0.126-0.939c-0.087-0.281-0.213-0.523-0.378-0.731c-0.16-0.203-0.358-0.368-0.591-0.494
		c-0.237-0.131-0.499-0.213-0.794-0.252v-1.143h-0.828v1.128c-0.3,0.039-0.567,0.111-0.809,0.223
		c-0.237,0.107-0.441,0.252-0.61,0.431c-0.169,0.179-0.3,0.387-0.392,0.63c-0.092,0.237-0.136,0.504-0.136,0.794
		c0,0.324,0.048,0.605,0.155,0.847c0.102,0.237,0.252,0.45,0.441,0.634c0.189,0.184,0.421,0.344,0.692,0.479
		c0.266,0.136,0.567,0.262,0.901,0.378c0.228,0.077,0.421,0.16,0.581,0.247c0.16,0.087,0.291,0.179,0.387,0.281
		c0.097,0.102,0.17,0.213,0.213,0.334c0.048,0.121,0.068,0.252,0.068,0.397c0,0.315-0.102,0.571-0.305,0.76
		c-0.208,0.189-0.508,0.286-0.901,0.286c-0.155,0-0.305-0.024-0.455-0.068c-0.15-0.044-0.286-0.116-0.407-0.218
		c-0.121-0.107-0.213-0.247-0.291-0.421c-0.073-0.179-0.111-0.397-0.111-0.663H8.242c0,0.402,0.058,0.751,0.179,1.041
		c0.116,0.286,0.276,0.528,0.475,0.717c0.194,0.189,0.421,0.329,0.678,0.431c0.257,0.102,0.523,0.165,0.799,0.199v1.007h0.828
		v-1.012c0.305-0.034,0.586-0.102,0.838-0.203c0.252-0.107,0.465-0.247,0.639-0.421c0.179-0.174,0.315-0.383,0.412-0.625
		c0.097-0.242,0.145-0.513,0.145-0.818C13.235,49.741,13.186,49.46,13.085,49.218z M13.085,49.218
		c-0.102-0.237-0.247-0.446-0.431-0.63c-0.189-0.179-0.416-0.339-0.683-0.479c-0.266-0.136-0.567-0.261-0.901-0.383
		c-0.242-0.087-0.446-0.174-0.61-0.266c-0.165-0.087-0.295-0.179-0.397-0.276c-0.097-0.102-0.165-0.208-0.208-0.324
		c-0.044-0.121-0.063-0.252-0.063-0.397c0-0.15,0.019-0.291,0.063-0.421c0.044-0.126,0.107-0.237,0.194-0.329
		c0.087-0.092,0.199-0.165,0.329-0.213c0.131-0.053,0.291-0.077,0.475-0.077c0.17,0,0.32,0.034,0.455,0.097
		c0.136,0.068,0.252,0.16,0.344,0.281c0.092,0.121,0.165,0.266,0.213,0.441c0.053,0.174,0.077,0.368,0.077,0.586h1.254
		c0-0.349-0.044-0.663-0.126-0.939c-0.087-0.281-0.213-0.523-0.378-0.731c-0.16-0.203-0.358-0.368-0.591-0.494
		c-0.237-0.131-0.499-0.213-0.794-0.252v-1.143h-0.828v1.128c-0.3,0.039-0.567,0.111-0.809,0.223
		c-0.237,0.107-0.441,0.252-0.61,0.431c-0.169,0.179-0.3,0.387-0.392,0.63c-0.092,0.237-0.136,0.504-0.136,0.794
		c0,0.324,0.048,0.605,0.155,0.847c0.102,0.237,0.252,0.45,0.441,0.634c0.189,0.184,0.421,0.344,0.692,0.479
		c0.266,0.136,0.567,0.262,0.901,0.378c0.228,0.077,0.421,0.16,0.581,0.247c0.16,0.087,0.291,0.179,0.387,0.281
		c0.097,0.102,0.17,0.213,0.213,0.334c0.048,0.121,0.068,0.252,0.068,0.397c0,0.315-0.102,0.571-0.305,0.76
		c-0.208,0.189-0.508,0.286-0.901,0.286c-0.155,0-0.305-0.024-0.455-0.068c-0.15-0.044-0.286-0.116-0.407-0.218
		c-0.121-0.107-0.213-0.247-0.291-0.421c-0.073-0.179-0.111-0.397-0.111-0.663H8.242c0,0.402,0.058,0.751,0.179,1.041
		c0.116,0.286,0.276,0.528,0.475,0.717c0.194,0.189,0.421,0.329,0.678,0.431c0.257,0.102,0.523,0.165,0.799,0.199v1.007h0.828
		v-1.012c0.305-0.034,0.586-0.102,0.838-0.203c0.252-0.107,0.465-0.247,0.639-0.421c0.179-0.174,0.315-0.383,0.412-0.625
		c0.097-0.242,0.145-0.513,0.145-0.818C13.235,49.741,13.186,49.46,13.085,49.218z M13.085,49.218
		c-0.102-0.237-0.247-0.446-0.431-0.63c-0.189-0.179-0.416-0.339-0.683-0.479c-0.266-0.136-0.567-0.261-0.901-0.383
		c-0.242-0.087-0.446-0.174-0.61-0.266c-0.165-0.087-0.295-0.179-0.397-0.276c-0.097-0.102-0.165-0.208-0.208-0.324
		c-0.044-0.121-0.063-0.252-0.063-0.397c0-0.15,0.019-0.291,0.063-0.421c0.044-0.126,0.107-0.237,0.194-0.329
		c0.087-0.092,0.199-0.165,0.329-0.213c0.131-0.053,0.291-0.077,0.475-0.077c0.17,0,0.32,0.034,0.455,0.097
		c0.136,0.068,0.252,0.16,0.344,0.281c0.092,0.121,0.165,0.266,0.213,0.441c0.053,0.174,0.077,0.368,0.077,0.586h1.254
		c0-0.349-0.044-0.663-0.126-0.939c-0.087-0.281-0.213-0.523-0.378-0.731c-0.16-0.203-0.358-0.368-0.591-0.494
		c-0.237-0.131-0.499-0.213-0.794-0.252v-1.143h-0.828v1.128c-0.3,0.039-0.567,0.111-0.809,0.223
		c-0.237,0.107-0.441,0.252-0.61,0.431c-0.169,0.179-0.3,0.387-0.392,0.63c-0.092,0.237-0.136,0.504-0.136,0.794
		c0,0.324,0.048,0.605,0.155,0.847c0.102,0.237,0.252,0.45,0.441,0.634c0.189,0.184,0.421,0.344,0.692,0.479
		c0.266,0.136,0.567,0.262,0.901,0.378c0.228,0.077,0.421,0.16,0.581,0.247c0.16,0.087,0.291,0.179,0.387,0.281
		c0.097,0.102,0.17,0.213,0.213,0.334c0.048,0.121,0.068,0.252,0.068,0.397c0,0.315-0.102,0.571-0.305,0.76
		c-0.208,0.189-0.508,0.286-0.901,0.286c-0.155,0-0.305-0.024-0.455-0.068c-0.15-0.044-0.286-0.116-0.407-0.218
		c-0.121-0.107-0.213-0.247-0.291-0.421c-0.073-0.179-0.111-0.397-0.111-0.663H8.242c0,0.402,0.058,0.751,0.179,1.041
		c0.116,0.286,0.276,0.528,0.475,0.717c0.194,0.189,0.421,0.329,0.678,0.431c0.257,0.102,0.523,0.165,0.799,0.199v1.007h0.828
		v-1.012c0.305-0.034,0.586-0.102,0.838-0.203c0.252-0.107,0.465-0.247,0.639-0.421c0.179-0.174,0.315-0.383,0.412-0.625
		c0.097-0.242,0.145-0.513,0.145-0.818C13.235,49.741,13.186,49.46,13.085,49.218z M10.804,40.477c-4.242,0-7.7,3.453-7.7,7.7
		c0,4.247,3.458,7.7,7.7,7.7c4.247,0,7.7-3.453,7.7-7.7C18.504,43.93,15.051,40.477,10.804,40.477z M10.804,53.973
		c-3.196,0-5.797-2.6-5.797-5.797c0-3.196,2.6-5.797,5.797-5.797c3.196,0,5.797,2.6,5.797,5.797
		C16.6,51.373,14,53.973,10.804,53.973z M12.654,48.588c-0.189-0.179-0.416-0.339-0.683-0.479c-0.266-0.136-0.567-0.261-0.901-0.383
		c-0.242-0.087-0.446-0.174-0.61-0.266c-0.165-0.087-0.295-0.179-0.397-0.276c-0.097-0.102-0.165-0.208-0.208-0.324
		c-0.044-0.121-0.063-0.252-0.063-0.397c0-0.15,0.019-0.291,0.063-0.421c0.044-0.126,0.107-0.237,0.194-0.329
		c0.087-0.092,0.199-0.165,0.329-0.213c0.131-0.053,0.291-0.077,0.475-0.077c0.17,0,0.32,0.034,0.455,0.097
		c0.136,0.068,0.252,0.16,0.344,0.281c0.092,0.121,0.165,0.266,0.213,0.441c0.053,0.174,0.077,0.368,0.077,0.586h1.254
		c0-0.349-0.044-0.663-0.126-0.939c-0.087-0.281-0.213-0.523-0.378-0.731c-0.16-0.203-0.358-0.368-0.591-0.494
		c-0.237-0.131-0.499-0.213-0.794-0.252v-1.143h-0.828v1.128c-0.3,0.039-0.567,0.111-0.809,0.223
		c-0.237,0.107-0.441,0.252-0.61,0.431c-0.169,0.179-0.3,0.387-0.392,0.63c-0.092,0.237-0.136,0.504-0.136,0.794
		c0,0.324,0.048,0.605,0.155,0.847c0.102,0.237,0.252,0.45,0.441,0.634c0.189,0.184,0.421,0.344,0.692,0.479
		c0.266,0.136,0.567,0.262,0.901,0.378c0.228,0.077,0.421,0.16,0.581,0.247c0.16,0.087,0.291,0.179,0.387,0.281
		c0.097,0.102,0.17,0.213,0.213,0.334c0.048,0.121,0.068,0.252,0.068,0.397c0,0.315-0.102,0.571-0.305,0.76
		c-0.208,0.189-0.508,0.286-0.901,0.286c-0.155,0-0.305-0.024-0.455-0.068c-0.15-0.044-0.286-0.116-0.407-0.218
		c-0.121-0.107-0.213-0.247-0.291-0.421c-0.073-0.179-0.111-0.397-0.111-0.663H8.242c0,0.402,0.058,0.751,0.179,1.041
		c0.116,0.286,0.276,0.528,0.475,0.717c0.194,0.189,0.421,0.329,0.678,0.431c0.257,0.102,0.523,0.165,0.799,0.199v1.007h0.828
		v-1.012c0.305-0.034,0.586-0.102,0.838-0.203c0.252-0.107,0.465-0.247,0.639-0.421c0.179-0.174,0.315-0.383,0.412-0.625
		c0.097-0.242,0.145-0.513,0.145-0.818c0-0.32-0.048-0.601-0.15-0.843C12.983,48.981,12.838,48.772,12.654,48.588z M13.085,49.218
		c-0.102-0.237-0.247-0.446-0.431-0.63c-0.189-0.179-0.416-0.339-0.683-0.479c-0.266-0.136-0.567-0.261-0.901-0.383
		c-0.242-0.087-0.446-0.174-0.61-0.266c-0.165-0.087-0.295-0.179-0.397-0.276c-0.097-0.102-0.165-0.208-0.208-0.324
		c-0.044-0.121-0.063-0.252-0.063-0.397c0-0.15,0.019-0.291,0.063-0.421c0.044-0.126,0.107-0.237,0.194-0.329
		c0.087-0.092,0.199-0.165,0.329-0.213c0.131-0.053,0.291-0.077,0.475-0.077c0.17,0,0.32,0.034,0.455,0.097
		c0.136,0.068,0.252,0.16,0.344,0.281c0.092,0.121,0.165,0.266,0.213,0.441c0.053,0.174,0.077,0.368,0.077,0.586h1.254
		c0-0.349-0.044-0.663-0.126-0.939c-0.087-0.281-0.213-0.523-0.378-0.731c-0.16-0.203-0.358-0.368-0.591-0.494
		c-0.237-0.131-0.499-0.213-0.794-0.252v-1.143h-0.828v1.128c-0.3,0.039-0.567,0.111-0.809,0.223
		c-0.237,0.107-0.441,0.252-0.61,0.431c-0.169,0.179-0.3,0.387-0.392,0.63c-0.092,0.237-0.136,0.504-0.136,0.794
		c0,0.324,0.048,0.605,0.155,0.847c0.102,0.237,0.252,0.45,0.441,0.634c0.189,0.184,0.421,0.344,0.692,0.479
		c0.266,0.136,0.567,0.262,0.901,0.378c0.228,0.077,0.421,0.16,0.581,0.247c0.16,0.087,0.291,0.179,0.387,0.281
		c0.097,0.102,0.17,0.213,0.213,0.334c0.048,0.121,0.068,0.252,0.068,0.397c0,0.315-0.102,0.571-0.305,0.76
		c-0.208,0.189-0.508,0.286-0.901,0.286c-0.155,0-0.305-0.024-0.455-0.068c-0.15-0.044-0.286-0.116-0.407-0.218
		c-0.121-0.107-0.213-0.247-0.291-0.421c-0.073-0.179-0.111-0.397-0.111-0.663H8.242c0,0.402,0.058,0.751,0.179,1.041
		c0.116,0.286,0.276,0.528,0.475,0.717c0.194,0.189,0.421,0.329,0.678,0.431c0.257,0.102,0.523,0.165,0.799,0.199v1.007h0.828
		v-1.012c0.305-0.034,0.586-0.102,0.838-0.203c0.252-0.107,0.465-0.247,0.639-0.421c0.179-0.174,0.315-0.383,0.412-0.625
		c0.097-0.242,0.145-0.513,0.145-0.818C13.235,49.741,13.186,49.46,13.085,49.218z M13.085,49.218
		c-0.102-0.237-0.247-0.446-0.431-0.63c-0.189-0.179-0.416-0.339-0.683-0.479c-0.266-0.136-0.567-0.261-0.901-0.383
		c-0.242-0.087-0.446-0.174-0.61-0.266c-0.165-0.087-0.295-0.179-0.397-0.276c-0.097-0.102-0.165-0.208-0.208-0.324
		c-0.044-0.121-0.063-0.252-0.063-0.397c0-0.15,0.019-0.291,0.063-0.421c0.044-0.126,0.107-0.237,0.194-0.329
		c0.087-0.092,0.199-0.165,0.329-0.213c0.131-0.053,0.291-0.077,0.475-0.077c0.17,0,0.32,0.034,0.455,0.097
		c0.136,0.068,0.252,0.16,0.344,0.281c0.092,0.121,0.165,0.266,0.213,0.441c0.053,0.174,0.077,0.368,0.077,0.586h1.254
		c0-0.349-0.044-0.663-0.126-0.939c-0.087-0.281-0.213-0.523-0.378-0.731c-0.16-0.203-0.358-0.368-0.591-0.494
		c-0.237-0.131-0.499-0.213-0.794-0.252v-1.143h-0.828v1.128c-0.3,0.039-0.567,0.111-0.809,0.223
		c-0.237,0.107-0.441,0.252-0.61,0.431c-0.169,0.179-0.3,0.387-0.392,0.63c-0.092,0.237-0.136,0.504-0.136,0.794
		c0,0.324,0.048,0.605,0.155,0.847c0.102,0.237,0.252,0.45,0.441,0.634c0.189,0.184,0.421,0.344,0.692,0.479
		c0.266,0.136,0.567,0.262,0.901,0.378c0.228,0.077,0.421,0.16,0.581,0.247c0.16,0.087,0.291,0.179,0.387,0.281
		c0.097,0.102,0.17,0.213,0.213,0.334c0.048,0.121,0.068,0.252,0.068,0.397c0,0.315-0.102,0.571-0.305,0.76
		c-0.208,0.189-0.508,0.286-0.901,0.286c-0.155,0-0.305-0.024-0.455-0.068c-0.15-0.044-0.286-0.116-0.407-0.218
		c-0.121-0.107-0.213-0.247-0.291-0.421c-0.073-0.179-0.111-0.397-0.111-0.663H8.242c0,0.402,0.058,0.751,0.179,1.041
		c0.116,0.286,0.276,0.528,0.475,0.717c0.194,0.189,0.421,0.329,0.678,0.431c0.257,0.102,0.523,0.165,0.799,0.199v1.007h0.828
		v-1.012c0.305-0.034,0.586-0.102,0.838-0.203c0.252-0.107,0.465-0.247,0.639-0.421c0.179-0.174,0.315-0.383,0.412-0.625
		c0.097-0.242,0.145-0.513,0.145-0.818C13.235,49.741,13.186,49.46,13.085,49.218z M13.085,49.218
		c-0.102-0.237-0.247-0.446-0.431-0.63c-0.189-0.179-0.416-0.339-0.683-0.479c-0.266-0.136-0.567-0.261-0.901-0.383
		c-0.242-0.087-0.446-0.174-0.61-0.266c-0.165-0.087-0.295-0.179-0.397-0.276c-0.097-0.102-0.165-0.208-0.208-0.324
		c-0.044-0.121-0.063-0.252-0.063-0.397c0-0.15,0.019-0.291,0.063-0.421c0.044-0.126,0.107-0.237,0.194-0.329
		c0.087-0.092,0.199-0.165,0.329-0.213c0.131-0.053,0.291-0.077,0.475-0.077c0.17,0,0.32,0.034,0.455,0.097
		c0.136,0.068,0.252,0.16,0.344,0.281c0.092,0.121,0.165,0.266,0.213,0.441c0.053,0.174,0.077,0.368,0.077,0.586h1.254
		c0-0.349-0.044-0.663-0.126-0.939c-0.087-0.281-0.213-0.523-0.378-0.731c-0.16-0.203-0.358-0.368-0.591-0.494
		c-0.237-0.131-0.499-0.213-0.794-0.252v-1.143h-0.828v1.128c-0.3,0.039-0.567,0.111-0.809,0.223
		c-0.237,0.107-0.441,0.252-0.61,0.431c-0.169,0.179-0.3,0.387-0.392,0.63c-0.092,0.237-0.136,0.504-0.136,0.794
		c0,0.324,0.048,0.605,0.155,0.847c0.102,0.237,0.252,0.45,0.441,0.634c0.189,0.184,0.421,0.344,0.692,0.479
		c0.266,0.136,0.567,0.262,0.901,0.378c0.228,0.077,0.421,0.16,0.581,0.247c0.16,0.087,0.291,0.179,0.387,0.281
		c0.097,0.102,0.17,0.213,0.213,0.334c0.048,0.121,0.068,0.252,0.068,0.397c0,0.315-0.102,0.571-0.305,0.76
		c-0.208,0.189-0.508,0.286-0.901,0.286c-0.155,0-0.305-0.024-0.455-0.068c-0.15-0.044-0.286-0.116-0.407-0.218
		c-0.121-0.107-0.213-0.247-0.291-0.421c-0.073-0.179-0.111-0.397-0.111-0.663H8.242c0,0.402,0.058,0.751,0.179,1.041
		c0.116,0.286,0.276,0.528,0.475,0.717c0.194,0.189,0.421,0.329,0.678,0.431c0.257,0.102,0.523,0.165,0.799,0.199v1.007h0.828
		v-1.012c0.305-0.034,0.586-0.102,0.838-0.203c0.252-0.107,0.465-0.247,0.639-0.421c0.179-0.174,0.315-0.383,0.412-0.625
		c0.097-0.242,0.145-0.513,0.145-0.818C13.235,49.741,13.186,49.46,13.085,49.218z M13.085,49.218
		c-0.102-0.237-0.247-0.446-0.431-0.63c-0.189-0.179-0.416-0.339-0.683-0.479c-0.266-0.136-0.567-0.261-0.901-0.383
		c-0.242-0.087-0.446-0.174-0.61-0.266c-0.165-0.087-0.295-0.179-0.397-0.276c-0.097-0.102-0.165-0.208-0.208-0.324
		c-0.044-0.121-0.063-0.252-0.063-0.397c0-0.15,0.019-0.291,0.063-0.421c0.044-0.126,0.107-0.237,0.194-0.329
		c0.087-0.092,0.199-0.165,0.329-0.213c0.131-0.053,0.291-0.077,0.475-0.077c0.17,0,0.32,0.034,0.455,0.097
		c0.136,0.068,0.252,0.16,0.344,0.281c0.092,0.121,0.165,0.266,0.213,0.441c0.053,0.174,0.077,0.368,0.077,0.586h1.254
		c0-0.349-0.044-0.663-0.126-0.939c-0.087-0.281-0.213-0.523-0.378-0.731c-0.16-0.203-0.358-0.368-0.591-0.494
		c-0.237-0.131-0.499-0.213-0.794-0.252v-1.143h-0.828v1.128c-0.3,0.039-0.567,0.111-0.809,0.223
		c-0.237,0.107-0.441,0.252-0.61,0.431c-0.169,0.179-0.3,0.387-0.392,0.63c-0.092,0.237-0.136,0.504-0.136,0.794
		c0,0.324,0.048,0.605,0.155,0.847c0.102,0.237,0.252,0.45,0.441,0.634c0.189,0.184,0.421,0.344,0.692,0.479
		c0.266,0.136,0.567,0.262,0.901,0.378c0.228,0.077,0.421,0.16,0.581,0.247c0.16,0.087,0.291,0.179,0.387,0.281
		c0.097,0.102,0.17,0.213,0.213,0.334c0.048,0.121,0.068,0.252,0.068,0.397c0,0.315-0.102,0.571-0.305,0.76
		c-0.208,0.189-0.508,0.286-0.901,0.286c-0.155,0-0.305-0.024-0.455-0.068c-0.15-0.044-0.286-0.116-0.407-0.218
		c-0.121-0.107-0.213-0.247-0.291-0.421c-0.073-0.179-0.111-0.397-0.111-0.663H8.242c0,0.402,0.058,0.751,0.179,1.041
		c0.116,0.286,0.276,0.528,0.475,0.717c0.194,0.189,0.421,0.329,0.678,0.431c0.257,0.102,0.523,0.165,0.799,0.199v1.007h0.828
		v-1.012c0.305-0.034,0.586-0.102,0.838-0.203c0.252-0.107,0.465-0.247,0.639-0.421c0.179-0.174,0.315-0.383,0.412-0.625
		c0.097-0.242,0.145-0.513,0.145-0.818C13.235,49.741,13.186,49.46,13.085,49.218z M10.804,40.477c-4.242,0-7.7,3.453-7.7,7.7
		c0,4.247,3.458,7.7,7.7,7.7c4.247,0,7.7-3.453,7.7-7.7C18.504,43.93,15.051,40.477,10.804,40.477z M10.804,53.973
		c-3.196,0-5.797-2.6-5.797-5.797c0-3.196,2.6-5.797,5.797-5.797c3.196,0,5.797,2.6,5.797,5.797
		C16.6,51.373,14,53.973,10.804,53.973z M12.654,48.588c-0.189-0.179-0.416-0.339-0.683-0.479c-0.266-0.136-0.567-0.261-0.901-0.383
		c-0.242-0.087-0.446-0.174-0.61-0.266c-0.165-0.087-0.295-0.179-0.397-0.276c-0.097-0.102-0.165-0.208-0.208-0.324
		c-0.044-0.121-0.063-0.252-0.063-0.397c0-0.15,0.019-0.291,0.063-0.421c0.044-0.126,0.107-0.237,0.194-0.329
		c0.087-0.092,0.199-0.165,0.329-0.213c0.131-0.053,0.291-0.077,0.475-0.077c0.17,0,0.32,0.034,0.455,0.097
		c0.136,0.068,0.252,0.16,0.344,0.281c0.092,0.121,0.165,0.266,0.213,0.441c0.053,0.174,0.077,0.368,0.077,0.586h1.254
		c0-0.349-0.044-0.663-0.126-0.939c-0.087-0.281-0.213-0.523-0.378-0.731c-0.16-0.203-0.358-0.368-0.591-0.494
		c-0.237-0.131-0.499-0.213-0.794-0.252v-1.143h-0.828v1.128c-0.3,0.039-0.567,0.111-0.809,0.223
		c-0.237,0.107-0.441,0.252-0.61,0.431c-0.169,0.179-0.3,0.387-0.392,0.63c-0.092,0.237-0.136,0.504-0.136,0.794
		c0,0.324,0.048,0.605,0.155,0.847c0.102,0.237,0.252,0.45,0.441,0.634c0.189,0.184,0.421,0.344,0.692,0.479
		c0.266,0.136,0.567,0.262,0.901,0.378c0.228,0.077,0.421,0.16,0.581,0.247c0.16,0.087,0.291,0.179,0.387,0.281
		c0.097,0.102,0.17,0.213,0.213,0.334c0.048,0.121,0.068,0.252,0.068,0.397c0,0.315-0.102,0.571-0.305,0.76
		c-0.208,0.189-0.508,0.286-0.901,0.286c-0.155,0-0.305-0.024-0.455-0.068c-0.15-0.044-0.286-0.116-0.407-0.218
		c-0.121-0.107-0.213-0.247-0.291-0.421c-0.073-0.179-0.111-0.397-0.111-0.663H8.242c0,0.402,0.058,0.751,0.179,1.041
		c0.116,0.286,0.276,0.528,0.475,0.717c0.194,0.189,0.421,0.329,0.678,0.431c0.257,0.102,0.523,0.165,0.799,0.199v1.007h0.828
		v-1.012c0.305-0.034,0.586-0.102,0.838-0.203c0.252-0.107,0.465-0.247,0.639-0.421c0.179-0.174,0.315-0.383,0.412-0.625
		c0.097-0.242,0.145-0.513,0.145-0.818c0-0.32-0.048-0.601-0.15-0.843C12.983,48.981,12.838,48.772,12.654,48.588z M10.804,40.477
		c-4.242,0-7.7,3.453-7.7,7.7c0,4.247,3.458,7.7,7.7,7.7c4.247,0,7.7-3.453,7.7-7.7C18.504,43.93,15.051,40.477,10.804,40.477z
		 M10.804,53.973c-3.196,0-5.797-2.6-5.797-5.797c0-3.196,2.6-5.797,5.797-5.797c3.196,0,5.797,2.6,5.797,5.797
		C16.6,51.373,14,53.973,10.804,53.973z M12.654,48.588c-0.189-0.179-0.416-0.339-0.683-0.479c-0.266-0.136-0.567-0.261-0.901-0.383
		c-0.242-0.087-0.446-0.174-0.61-0.266c-0.165-0.087-0.295-0.179-0.397-0.276c-0.097-0.102-0.165-0.208-0.208-0.324
		c-0.044-0.121-0.063-0.252-0.063-0.397c0-0.15,0.019-0.291,0.063-0.421c0.044-0.126,0.107-0.237,0.194-0.329
		c0.087-0.092,0.199-0.165,0.329-0.213c0.131-0.053,0.291-0.077,0.475-0.077c0.17,0,0.32,0.034,0.455,0.097
		c0.136,0.068,0.252,0.16,0.344,0.281c0.092,0.121,0.165,0.266,0.213,0.441c0.053,0.174,0.077,0.368,0.077,0.586h1.254
		c0-0.349-0.044-0.663-0.126-0.939c-0.087-0.281-0.213-0.523-0.378-0.731c-0.16-0.203-0.358-0.368-0.591-0.494
		c-0.237-0.131-0.499-0.213-0.794-0.252v-1.143h-0.828v1.128c-0.3,0.039-0.567,0.111-0.809,0.223
		c-0.237,0.107-0.441,0.252-0.61,0.431c-0.169,0.179-0.3,0.387-0.392,0.63c-0.092,0.237-0.136,0.504-0.136,0.794
		c0,0.324,0.048,0.605,0.155,0.847c0.102,0.237,0.252,0.45,0.441,0.634c0.189,0.184,0.421,0.344,0.692,0.479
		c0.266,0.136,0.567,0.262,0.901,0.378c0.228,0.077,0.421,0.16,0.581,0.247c0.16,0.087,0.291,0.179,0.387,0.281
		c0.097,0.102,0.17,0.213,0.213,0.334c0.048,0.121,0.068,0.252,0.068,0.397c0,0.315-0.102,0.571-0.305,0.76
		c-0.208,0.189-0.508,0.286-0.901,0.286c-0.155,0-0.305-0.024-0.455-0.068c-0.15-0.044-0.286-0.116-0.407-0.218
		c-0.121-0.107-0.213-0.247-0.291-0.421c-0.073-0.179-0.111-0.397-0.111-0.663H8.242c0,0.402,0.058,0.751,0.179,1.041
		c0.116,0.286,0.276,0.528,0.475,0.717c0.194,0.189,0.421,0.329,0.678,0.431c0.257,0.102,0.523,0.165,0.799,0.199v1.007h0.828
		v-1.012c0.305-0.034,0.586-0.102,0.838-0.203c0.252-0.107,0.465-0.247,0.639-0.421c0.179-0.174,0.315-0.383,0.412-0.625
		c0.097-0.242,0.145-0.513,0.145-0.818c0-0.32-0.048-0.601-0.15-0.843C12.983,48.981,12.838,48.772,12.654,48.588z M10.804,37.373
		C4.847,37.373,0,42.22,0,48.177c0,5.961,4.847,10.804,10.804,10.804c5.961,0,10.809-4.843,10.809-10.804
		C21.613,42.22,16.765,37.373,10.804,37.373z M10.804,57.077c-4.906,0-8.901-3.99-8.901-8.901c0-4.906,3.995-8.901,8.901-8.901
		c4.91,0,8.901,3.995,8.901,8.901C19.705,53.087,15.714,57.077,10.804,57.077z M10.804,40.477c-4.242,0-7.7,3.453-7.7,7.7
		c0,4.247,3.458,7.7,7.7,7.7c4.247,0,7.7-3.453,7.7-7.7C18.504,43.93,15.051,40.477,10.804,40.477z M10.804,53.973
		c-3.196,0-5.797-2.6-5.797-5.797c0-3.196,2.6-5.797,5.797-5.797c3.196,0,5.797,2.6,5.797,5.797
		C16.6,51.373,14,53.973,10.804,53.973z M12.654,48.588c-0.189-0.179-0.416-0.339-0.683-0.479c-0.266-0.136-0.567-0.261-0.901-0.383
		c-0.242-0.087-0.446-0.174-0.61-0.266c-0.165-0.087-0.295-0.179-0.397-0.276c-0.097-0.102-0.165-0.208-0.208-0.324
		c-0.044-0.121-0.063-0.252-0.063-0.397c0-0.15,0.019-0.291,0.063-0.421c0.044-0.126,0.107-0.237,0.194-0.329
		c0.087-0.092,0.199-0.165,0.329-0.213c0.131-0.053,0.291-0.077,0.475-0.077c0.17,0,0.32,0.034,0.455,0.097
		c0.136,0.068,0.252,0.16,0.344,0.281c0.092,0.121,0.165,0.266,0.213,0.441c0.053,0.174,0.077,0.368,0.077,0.586h1.254
		c0-0.349-0.044-0.663-0.126-0.939c-0.087-0.281-0.213-0.523-0.378-0.731c-0.16-0.203-0.358-0.368-0.591-0.494
		c-0.237-0.131-0.499-0.213-0.794-0.252v-1.143h-0.828v1.128c-0.3,0.039-0.567,0.111-0.809,0.223
		c-0.237,0.107-0.441,0.252-0.61,0.431c-0.169,0.179-0.3,0.387-0.392,0.63c-0.092,0.237-0.136,0.504-0.136,0.794
		c0,0.324,0.048,0.605,0.155,0.847c0.102,0.237,0.252,0.45,0.441,0.634c0.189,0.184,0.421,0.344,0.692,0.479
		c0.266,0.136,0.567,0.262,0.901,0.378c0.228,0.077,0.421,0.16,0.581,0.247c0.16,0.087,0.291,0.179,0.387,0.281
		c0.097,0.102,0.17,0.213,0.213,0.334c0.048,0.121,0.068,0.252,0.068,0.397c0,0.315-0.102,0.571-0.305,0.76
		c-0.208,0.189-0.508,0.286-0.901,0.286c-0.155,0-0.305-0.024-0.455-0.068c-0.15-0.044-0.286-0.116-0.407-0.218
		c-0.121-0.107-0.213-0.247-0.291-0.421c-0.073-0.179-0.111-0.397-0.111-0.663H8.242c0,0.402,0.058,0.751,0.179,1.041
		c0.116,0.286,0.276,0.528,0.475,0.717c0.194,0.189,0.421,0.329,0.678,0.431c0.257,0.102,0.523,0.165,0.799,0.199v1.007h0.828
		v-1.012c0.305-0.034,0.586-0.102,0.838-0.203c0.252-0.107,0.465-0.247,0.639-0.421c0.179-0.174,0.315-0.383,0.412-0.625
		c0.097-0.242,0.145-0.513,0.145-0.818c0-0.32-0.048-0.601-0.15-0.843C12.983,48.981,12.838,48.772,12.654,48.588z M13.085,49.218
		c-0.102-0.237-0.247-0.446-0.431-0.63c-0.189-0.179-0.416-0.339-0.683-0.479c-0.266-0.136-0.567-0.261-0.901-0.383
		c-0.242-0.087-0.446-0.174-0.61-0.266c-0.165-0.087-0.295-0.179-0.397-0.276c-0.097-0.102-0.165-0.208-0.208-0.324
		c-0.044-0.121-0.063-0.252-0.063-0.397c0-0.15,0.019-0.291,0.063-0.421c0.044-0.126,0.107-0.237,0.194-0.329
		c0.087-0.092,0.199-0.165,0.329-0.213c0.131-0.053,0.291-0.077,0.475-0.077c0.17,0,0.32,0.034,0.455,0.097
		c0.136,0.068,0.252,0.16,0.344,0.281c0.092,0.121,0.165,0.266,0.213,0.441c0.053,0.174,0.077,0.368,0.077,0.586h1.254
		c0-0.349-0.044-0.663-0.126-0.939c-0.087-0.281-0.213-0.523-0.378-0.731c-0.16-0.203-0.358-0.368-0.591-0.494
		c-0.237-0.131-0.499-0.213-0.794-0.252v-1.143h-0.828v1.128c-0.3,0.039-0.567,0.111-0.809,0.223
		c-0.237,0.107-0.441,0.252-0.61,0.431c-0.169,0.179-0.3,0.387-0.392,0.63c-0.092,0.237-0.136,0.504-0.136,0.794
		c0,0.324,0.048,0.605,0.155,0.847c0.102,0.237,0.252,0.45,0.441,0.634c0.189,0.184,0.421,0.344,0.692,0.479
		c0.266,0.136,0.567,0.262,0.901,0.378c0.228,0.077,0.421,0.16,0.581,0.247c0.16,0.087,0.291,0.179,0.387,0.281
		c0.097,0.102,0.17,0.213,0.213,0.334c0.048,0.121,0.068,0.252,0.068,0.397c0,0.315-0.102,0.571-0.305,0.76
		c-0.208,0.189-0.508,0.286-0.901,0.286c-0.155,0-0.305-0.024-0.455-0.068c-0.15-0.044-0.286-0.116-0.407-0.218
		c-0.121-0.107-0.213-0.247-0.291-0.421c-0.073-0.179-0.111-0.397-0.111-0.663H8.242c0,0.402,0.058,0.751,0.179,1.041
		c0.116,0.286,0.276,0.528,0.475,0.717c0.194,0.189,0.421,0.329,0.678,0.431c0.257,0.102,0.523,0.165,0.799,0.199v1.007h0.828
		v-1.012c0.305-0.034,0.586-0.102,0.838-0.203c0.252-0.107,0.465-0.247,0.639-0.421c0.179-0.174,0.315-0.383,0.412-0.625
		c0.097-0.242,0.145-0.513,0.145-0.818C13.235,49.741,13.186,49.46,13.085,49.218z M13.085,49.218
		c-0.102-0.237-0.247-0.446-0.431-0.63c-0.189-0.179-0.416-0.339-0.683-0.479c-0.266-0.136-0.567-0.261-0.901-0.383
		c-0.242-0.087-0.446-0.174-0.61-0.266c-0.165-0.087-0.295-0.179-0.397-0.276c-0.097-0.102-0.165-0.208-0.208-0.324
		c-0.044-0.121-0.063-0.252-0.063-0.397c0-0.15,0.019-0.291,0.063-0.421c0.044-0.126,0.107-0.237,0.194-0.329
		c0.087-0.092,0.199-0.165,0.329-0.213c0.131-0.053,0.291-0.077,0.475-0.077c0.17,0,0.32,0.034,0.455,0.097
		c0.136,0.068,0.252,0.16,0.344,0.281c0.092,0.121,0.165,0.266,0.213,0.441c0.053,0.174,0.077,0.368,0.077,0.586h1.254
		c0-0.349-0.044-0.663-0.126-0.939c-0.087-0.281-0.213-0.523-0.378-0.731c-0.16-0.203-0.358-0.368-0.591-0.494
		c-0.237-0.131-0.499-0.213-0.794-0.252v-1.143h-0.828v1.128c-0.3,0.039-0.567,0.111-0.809,0.223
		c-0.237,0.107-0.441,0.252-0.61,0.431c-0.169,0.179-0.3,0.387-0.392,0.63c-0.092,0.237-0.136,0.504-0.136,0.794
		c0,0.324,0.048,0.605,0.155,0.847c0.102,0.237,0.252,0.45,0.441,0.634c0.189,0.184,0.421,0.344,0.692,0.479
		c0.266,0.136,0.567,0.262,0.901,0.378c0.228,0.077,0.421,0.16,0.581,0.247c0.16,0.087,0.291,0.179,0.387,0.281
		c0.097,0.102,0.17,0.213,0.213,0.334c0.048,0.121,0.068,0.252,0.068,0.397c0,0.315-0.102,0.571-0.305,0.76
		c-0.208,0.189-0.508,0.286-0.901,0.286c-0.155,0-0.305-0.024-0.455-0.068c-0.15-0.044-0.286-0.116-0.407-0.218
		c-0.121-0.107-0.213-0.247-0.291-0.421c-0.073-0.179-0.111-0.397-0.111-0.663H8.242c0,0.402,0.058,0.751,0.179,1.041
		c0.116,0.286,0.276,0.528,0.475,0.717c0.194,0.189,0.421,0.329,0.678,0.431c0.257,0.102,0.523,0.165,0.799,0.199v1.007h0.828
		v-1.012c0.305-0.034,0.586-0.102,0.838-0.203c0.252-0.107,0.465-0.247,0.639-0.421c0.179-0.174,0.315-0.383,0.412-0.625
		c0.097-0.242,0.145-0.513,0.145-0.818C13.235,49.741,13.186,49.46,13.085,49.218z M10.804,40.477c-4.242,0-7.7,3.453-7.7,7.7
		c0,4.247,3.458,7.7,7.7,7.7c4.247,0,7.7-3.453,7.7-7.7C18.504,43.93,15.051,40.477,10.804,40.477z M10.804,53.973
		c-3.196,0-5.797-2.6-5.797-5.797c0-3.196,2.6-5.797,5.797-5.797c3.196,0,5.797,2.6,5.797,5.797
		C16.6,51.373,14,53.973,10.804,53.973z M12.654,48.588c-0.189-0.179-0.416-0.339-0.683-0.479c-0.266-0.136-0.567-0.261-0.901-0.383
		c-0.242-0.087-0.446-0.174-0.61-0.266c-0.165-0.087-0.295-0.179-0.397-0.276c-0.097-0.102-0.165-0.208-0.208-0.324
		c-0.044-0.121-0.063-0.252-0.063-0.397c0-0.15,0.019-0.291,0.063-0.421c0.044-0.126,0.107-0.237,0.194-0.329
		c0.087-0.092,0.199-0.165,0.329-0.213c0.131-0.053,0.291-0.077,0.475-0.077c0.17,0,0.32,0.034,0.455,0.097
		c0.136,0.068,0.252,0.16,0.344,0.281c0.092,0.121,0.165,0.266,0.213,0.441c0.053,0.174,0.077,0.368,0.077,0.586h1.254
		c0-0.349-0.044-0.663-0.126-0.939c-0.087-0.281-0.213-0.523-0.378-0.731c-0.16-0.203-0.358-0.368-0.591-0.494
		c-0.237-0.131-0.499-0.213-0.794-0.252v-1.143h-0.828v1.128c-0.3,0.039-0.567,0.111-0.809,0.223
		c-0.237,0.107-0.441,0.252-0.61,0.431c-0.169,0.179-0.3,0.387-0.392,0.63c-0.092,0.237-0.136,0.504-0.136,0.794
		c0,0.324,0.048,0.605,0.155,0.847c0.102,0.237,0.252,0.45,0.441,0.634c0.189,0.184,0.421,0.344,0.692,0.479
		c0.266,0.136,0.567,0.262,0.901,0.378c0.228,0.077,0.421,0.16,0.581,0.247c0.16,0.087,0.291,0.179,0.387,0.281
		c0.097,0.102,0.17,0.213,0.213,0.334c0.048,0.121,0.068,0.252,0.068,0.397c0,0.315-0.102,0.571-0.305,0.76
		c-0.208,0.189-0.508,0.286-0.901,0.286c-0.155,0-0.305-0.024-0.455-0.068c-0.15-0.044-0.286-0.116-0.407-0.218
		c-0.121-0.107-0.213-0.247-0.291-0.421c-0.073-0.179-0.111-0.397-0.111-0.663H8.242c0,0.402,0.058,0.751,0.179,1.041
		c0.116,0.286,0.276,0.528,0.475,0.717c0.194,0.189,0.421,0.329,0.678,0.431c0.257,0.102,0.523,0.165,0.799,0.199v1.007h0.828
		v-1.012c0.305-0.034,0.586-0.102,0.838-0.203c0.252-0.107,0.465-0.247,0.639-0.421c0.179-0.174,0.315-0.383,0.412-0.625
		c0.097-0.242,0.145-0.513,0.145-0.818c0-0.32-0.048-0.601-0.15-0.843C12.983,48.981,12.838,48.772,12.654,48.588z M13.085,49.218
		c-0.102-0.237-0.247-0.446-0.431-0.63c-0.189-0.179-0.416-0.339-0.683-0.479c-0.266-0.136-0.567-0.261-0.901-0.383
		c-0.242-0.087-0.446-0.174-0.61-0.266c-0.165-0.087-0.295-0.179-0.397-0.276c-0.097-0.102-0.165-0.208-0.208-0.324
		c-0.044-0.121-0.063-0.252-0.063-0.397c0-0.15,0.019-0.291,0.063-0.421c0.044-0.126,0.107-0.237,0.194-0.329
		c0.087-0.092,0.199-0.165,0.329-0.213c0.131-0.053,0.291-0.077,0.475-0.077c0.17,0,0.32,0.034,0.455,0.097
		c0.136,0.068,0.252,0.16,0.344,0.281c0.092,0.121,0.165,0.266,0.213,0.441c0.053,0.174,0.077,0.368,0.077,0.586h1.254
		c0-0.349-0.044-0.663-0.126-0.939c-0.087-0.281-0.213-0.523-0.378-0.731c-0.16-0.203-0.358-0.368-0.591-0.494
		c-0.237-0.131-0.499-0.213-0.794-0.252v-1.143h-0.828v1.128c-0.3,0.039-0.567,0.111-0.809,0.223
		c-0.237,0.107-0.441,0.252-0.61,0.431c-0.169,0.179-0.3,0.387-0.392,0.63c-0.092,0.237-0.136,0.504-0.136,0.794
		c0,0.324,0.048,0.605,0.155,0.847c0.102,0.237,0.252,0.45,0.441,0.634c0.189,0.184,0.421,0.344,0.692,0.479
		c0.266,0.136,0.567,0.262,0.901,0.378c0.228,0.077,0.421,0.16,0.581,0.247c0.16,0.087,0.291,0.179,0.387,0.281
		c0.097,0.102,0.17,0.213,0.213,0.334c0.048,0.121,0.068,0.252,0.068,0.397c0,0.315-0.102,0.571-0.305,0.76
		c-0.208,0.189-0.508,0.286-0.901,0.286c-0.155,0-0.305-0.024-0.455-0.068c-0.15-0.044-0.286-0.116-0.407-0.218
		c-0.121-0.107-0.213-0.247-0.291-0.421c-0.073-0.179-0.111-0.397-0.111-0.663H8.242c0,0.402,0.058,0.751,0.179,1.041
		c0.116,0.286,0.276,0.528,0.475,0.717c0.194,0.189,0.421,0.329,0.678,0.431c0.257,0.102,0.523,0.165,0.799,0.199v1.007h0.828
		v-1.012c0.305-0.034,0.586-0.102,0.838-0.203c0.252-0.107,0.465-0.247,0.639-0.421c0.179-0.174,0.315-0.383,0.412-0.625
		c0.097-0.242,0.145-0.513,0.145-0.818C13.235,49.741,13.186,49.46,13.085,49.218z M13.085,49.218
		c-0.102-0.237-0.247-0.446-0.431-0.63c-0.189-0.179-0.416-0.339-0.683-0.479c-0.266-0.136-0.567-0.261-0.901-0.383
		c-0.242-0.087-0.446-0.174-0.61-0.266c-0.165-0.087-0.295-0.179-0.397-0.276c-0.097-0.102-0.165-0.208-0.208-0.324
		c-0.044-0.121-0.063-0.252-0.063-0.397c0-0.15,0.019-0.291,0.063-0.421c0.044-0.126,0.107-0.237,0.194-0.329
		c0.087-0.092,0.199-0.165,0.329-0.213c0.131-0.053,0.291-0.077,0.475-0.077c0.17,0,0.32,0.034,0.455,0.097
		c0.136,0.068,0.252,0.16,0.344,0.281c0.092,0.121,0.165,0.266,0.213,0.441c0.053,0.174,0.077,0.368,0.077,0.586h1.254
		c0-0.349-0.044-0.663-0.126-0.939c-0.087-0.281-0.213-0.523-0.378-0.731c-0.16-0.203-0.358-0.368-0.591-0.494
		c-0.237-0.131-0.499-0.213-0.794-0.252v-1.143h-0.828v1.128c-0.3,0.039-0.567,0.111-0.809,0.223
		c-0.237,0.107-0.441,0.252-0.61,0.431c-0.169,0.179-0.3,0.387-0.392,0.63c-0.092,0.237-0.136,0.504-0.136,0.794
		c0,0.324,0.048,0.605,0.155,0.847c0.102,0.237,0.252,0.45,0.441,0.634c0.189,0.184,0.421,0.344,0.692,0.479
		c0.266,0.136,0.567,0.262,0.901,0.378c0.228,0.077,0.421,0.16,0.581,0.247c0.16,0.087,0.291,0.179,0.387,0.281
		c0.097,0.102,0.17,0.213,0.213,0.334c0.048,0.121,0.068,0.252,0.068,0.397c0,0.315-0.102,0.571-0.305,0.76
		c-0.208,0.189-0.508,0.286-0.901,0.286c-0.155,0-0.305-0.024-0.455-0.068c-0.15-0.044-0.286-0.116-0.407-0.218
		c-0.121-0.107-0.213-0.247-0.291-0.421c-0.073-0.179-0.111-0.397-0.111-0.663H8.242c0,0.402,0.058,0.751,0.179,1.041
		c0.116,0.286,0.276,0.528,0.475,0.717c0.194,0.189,0.421,0.329,0.678,0.431c0.257,0.102,0.523,0.165,0.799,0.199v1.007h0.828
		v-1.012c0.305-0.034,0.586-0.102,0.838-0.203c0.252-0.107,0.465-0.247,0.639-0.421c0.179-0.174,0.315-0.383,0.412-0.625
		c0.097-0.242,0.145-0.513,0.145-0.818C13.235,49.741,13.186,49.46,13.085,49.218z M10.804,40.477c-4.242,0-7.7,3.453-7.7,7.7
		c0,4.247,3.458,7.7,7.7,7.7c4.247,0,7.7-3.453,7.7-7.7C18.504,43.93,15.051,40.477,10.804,40.477z M10.804,53.973
		c-3.196,0-5.797-2.6-5.797-5.797c0-3.196,2.6-5.797,5.797-5.797c3.196,0,5.797,2.6,5.797,5.797
		C16.6,51.373,14,53.973,10.804,53.973z M12.654,48.588c-0.189-0.179-0.416-0.339-0.683-0.479c-0.266-0.136-0.567-0.261-0.901-0.383
		c-0.242-0.087-0.446-0.174-0.61-0.266c-0.165-0.087-0.295-0.179-0.397-0.276c-0.097-0.102-0.165-0.208-0.208-0.324
		c-0.044-0.121-0.063-0.252-0.063-0.397c0-0.15,0.019-0.291,0.063-0.421c0.044-0.126,0.107-0.237,0.194-0.329
		c0.087-0.092,0.199-0.165,0.329-0.213c0.131-0.053,0.291-0.077,0.475-0.077c0.17,0,0.32,0.034,0.455,0.097
		c0.136,0.068,0.252,0.16,0.344,0.281c0.092,0.121,0.165,0.266,0.213,0.441c0.053,0.174,0.077,0.368,0.077,0.586h1.254
		c0-0.349-0.044-0.663-0.126-0.939c-0.087-0.281-0.213-0.523-0.378-0.731c-0.16-0.203-0.358-0.368-0.591-0.494
		c-0.237-0.131-0.499-0.213-0.794-0.252v-1.143h-0.828v1.128c-0.3,0.039-0.567,0.111-0.809,0.223
		c-0.237,0.107-0.441,0.252-0.61,0.431c-0.169,0.179-0.3,0.387-0.392,0.63c-0.092,0.237-0.136,0.504-0.136,0.794
		c0,0.324,0.048,0.605,0.155,0.847c0.102,0.237,0.252,0.45,0.441,0.634c0.189,0.184,0.421,0.344,0.692,0.479
		c0.266,0.136,0.567,0.262,0.901,0.378c0.228,0.077,0.421,0.16,0.581,0.247c0.16,0.087,0.291,0.179,0.387,0.281
		c0.097,0.102,0.17,0.213,0.213,0.334c0.048,0.121,0.068,0.252,0.068,0.397c0,0.315-0.102,0.571-0.305,0.76
		c-0.208,0.189-0.508,0.286-0.901,0.286c-0.155,0-0.305-0.024-0.455-0.068c-0.15-0.044-0.286-0.116-0.407-0.218
		c-0.121-0.107-0.213-0.247-0.291-0.421c-0.073-0.179-0.111-0.397-0.111-0.663H8.242c0,0.402,0.058,0.751,0.179,1.041
		c0.116,0.286,0.276,0.528,0.475,0.717c0.194,0.189,0.421,0.329,0.678,0.431c0.257,0.102,0.523,0.165,0.799,0.199v1.007h0.828
		v-1.012c0.305-0.034,0.586-0.102,0.838-0.203c0.252-0.107,0.465-0.247,0.639-0.421c0.179-0.174,0.315-0.383,0.412-0.625
		c0.097-0.242,0.145-0.513,0.145-0.818c0-0.32-0.048-0.601-0.15-0.843C12.983,48.981,12.838,48.772,12.654,48.588z M13.085,49.218
		c-0.102-0.237-0.247-0.446-0.431-0.63c-0.189-0.179-0.416-0.339-0.683-0.479c-0.266-0.136-0.567-0.261-0.901-0.383
		c-0.242-0.087-0.446-0.174-0.61-0.266c-0.165-0.087-0.295-0.179-0.397-0.276c-0.097-0.102-0.165-0.208-0.208-0.324
		c-0.044-0.121-0.063-0.252-0.063-0.397c0-0.15,0.019-0.291,0.063-0.421c0.044-0.126,0.107-0.237,0.194-0.329
		c0.087-0.092,0.199-0.165,0.329-0.213c0.131-0.053,0.291-0.077,0.475-0.077c0.17,0,0.32,0.034,0.455,0.097
		c0.136,0.068,0.252,0.16,0.344,0.281c0.092,0.121,0.165,0.266,0.213,0.441c0.053,0.174,0.077,0.368,0.077,0.586h1.254
		c0-0.349-0.044-0.663-0.126-0.939c-0.087-0.281-0.213-0.523-0.378-0.731c-0.16-0.203-0.358-0.368-0.591-0.494
		c-0.237-0.131-0.499-0.213-0.794-0.252v-1.143h-0.828v1.128c-0.3,0.039-0.567,0.111-0.809,0.223
		c-0.237,0.107-0.441,0.252-0.61,0.431c-0.169,0.179-0.3,0.387-0.392,0.63c-0.092,0.237-0.136,0.504-0.136,0.794
		c0,0.324,0.048,0.605,0.155,0.847c0.102,0.237,0.252,0.45,0.441,0.634c0.189,0.184,0.421,0.344,0.692,0.479
		c0.266,0.136,0.567,0.262,0.901,0.378c0.228,0.077,0.421,0.16,0.581,0.247c0.16,0.087,0.291,0.179,0.387,0.281
		c0.097,0.102,0.17,0.213,0.213,0.334c0.048,0.121,0.068,0.252,0.068,0.397c0,0.315-0.102,0.571-0.305,0.76
		c-0.208,0.189-0.508,0.286-0.901,0.286c-0.155,0-0.305-0.024-0.455-0.068c-0.15-0.044-0.286-0.116-0.407-0.218
		c-0.121-0.107-0.213-0.247-0.291-0.421c-0.073-0.179-0.111-0.397-0.111-0.663H8.242c0,0.402,0.058,0.751,0.179,1.041
		c0.116,0.286,0.276,0.528,0.475,0.717c0.194,0.189,0.421,0.329,0.678,0.431c0.257,0.102,0.523,0.165,0.799,0.199v1.007h0.828
		v-1.012c0.305-0.034,0.586-0.102,0.838-0.203c0.252-0.107,0.465-0.247,0.639-0.421c0.179-0.174,0.315-0.383,0.412-0.625
		c0.097-0.242,0.145-0.513,0.145-0.818C13.235,49.741,13.186,49.46,13.085,49.218z M13.085,49.218
		c-0.102-0.237-0.247-0.446-0.431-0.63c-0.189-0.179-0.416-0.339-0.683-0.479c-0.266-0.136-0.567-0.261-0.901-0.383
		c-0.242-0.087-0.446-0.174-0.61-0.266c-0.165-0.087-0.295-0.179-0.397-0.276c-0.097-0.102-0.165-0.208-0.208-0.324
		c-0.044-0.121-0.063-0.252-0.063-0.397c0-0.15,0.019-0.291,0.063-0.421c0.044-0.126,0.107-0.237,0.194-0.329
		c0.087-0.092,0.199-0.165,0.329-0.213c0.131-0.053,0.291-0.077,0.475-0.077c0.17,0,0.32,0.034,0.455,0.097
		c0.136,0.068,0.252,0.16,0.344,0.281c0.092,0.121,0.165,0.266,0.213,0.441c0.053,0.174,0.077,0.368,0.077,0.586h1.254
		c0-0.349-0.044-0.663-0.126-0.939c-0.087-0.281-0.213-0.523-0.378-0.731c-0.16-0.203-0.358-0.368-0.591-0.494
		c-0.237-0.131-0.499-0.213-0.794-0.252v-1.143h-0.828v1.128c-0.3,0.039-0.567,0.111-0.809,0.223
		c-0.237,0.107-0.441,0.252-0.61,0.431c-0.169,0.179-0.3,0.387-0.392,0.63c-0.092,0.237-0.136,0.504-0.136,0.794
		c0,0.324,0.048,0.605,0.155,0.847c0.102,0.237,0.252,0.45,0.441,0.634c0.189,0.184,0.421,0.344,0.692,0.479
		c0.266,0.136,0.567,0.262,0.901,0.378c0.228,0.077,0.421,0.16,0.581,0.247c0.16,0.087,0.291,0.179,0.387,0.281
		c0.097,0.102,0.17,0.213,0.213,0.334c0.048,0.121,0.068,0.252,0.068,0.397c0,0.315-0.102,0.571-0.305,0.76
		c-0.208,0.189-0.508,0.286-0.901,0.286c-0.155,0-0.305-0.024-0.455-0.068c-0.15-0.044-0.286-0.116-0.407-0.218
		c-0.121-0.107-0.213-0.247-0.291-0.421c-0.073-0.179-0.111-0.397-0.111-0.663H8.242c0,0.402,0.058,0.751,0.179,1.041
		c0.116,0.286,0.276,0.528,0.475,0.717c0.194,0.189,0.421,0.329,0.678,0.431c0.257,0.102,0.523,0.165,0.799,0.199v1.007h0.828
		v-1.012c0.305-0.034,0.586-0.102,0.838-0.203c0.252-0.107,0.465-0.247,0.639-0.421c0.179-0.174,0.315-0.383,0.412-0.625
		c0.097-0.242,0.145-0.513,0.145-0.818C13.235,49.741,13.186,49.46,13.085,49.218z M13.085,49.218
		c-0.102-0.237-0.247-0.446-0.431-0.63c-0.189-0.179-0.416-0.339-0.683-0.479c-0.266-0.136-0.567-0.261-0.901-0.383
		c-0.242-0.087-0.446-0.174-0.61-0.266c-0.165-0.087-0.295-0.179-0.397-0.276c-0.097-0.102-0.165-0.208-0.208-0.324
		c-0.044-0.121-0.063-0.252-0.063-0.397c0-0.15,0.019-0.291,0.063-0.421c0.044-0.126,0.107-0.237,0.194-0.329
		c0.087-0.092,0.199-0.165,0.329-0.213c0.131-0.053,0.291-0.077,0.475-0.077c0.17,0,0.32,0.034,0.455,0.097
		c0.136,0.068,0.252,0.16,0.344,0.281c0.092,0.121,0.165,0.266,0.213,0.441c0.053,0.174,0.077,0.368,0.077,0.586h1.254
		c0-0.349-0.044-0.663-0.126-0.939c-0.087-0.281-0.213-0.523-0.378-0.731c-0.16-0.203-0.358-0.368-0.591-0.494
		c-0.237-0.131-0.499-0.213-0.794-0.252v-1.143h-0.828v1.128c-0.3,0.039-0.567,0.111-0.809,0.223
		c-0.237,0.107-0.441,0.252-0.61,0.431c-0.169,0.179-0.3,0.387-0.392,0.63c-0.092,0.237-0.136,0.504-0.136,0.794
		c0,0.324,0.048,0.605,0.155,0.847c0.102,0.237,0.252,0.45,0.441,0.634c0.189,0.184,0.421,0.344,0.692,0.479
		c0.266,0.136,0.567,0.262,0.901,0.378c0.228,0.077,0.421,0.16,0.581,0.247c0.16,0.087,0.291,0.179,0.387,0.281
		c0.097,0.102,0.17,0.213,0.213,0.334c0.048,0.121,0.068,0.252,0.068,0.397c0,0.315-0.102,0.571-0.305,0.76
		c-0.208,0.189-0.508,0.286-0.901,0.286c-0.155,0-0.305-0.024-0.455-0.068c-0.15-0.044-0.286-0.116-0.407-0.218
		c-0.121-0.107-0.213-0.247-0.291-0.421c-0.073-0.179-0.111-0.397-0.111-0.663H8.242c0,0.402,0.058,0.751,0.179,1.041
		c0.116,0.286,0.276,0.528,0.475,0.717c0.194,0.189,0.421,0.329,0.678,0.431c0.257,0.102,0.523,0.165,0.799,0.199v1.007h0.828
		v-1.012c0.305-0.034,0.586-0.102,0.838-0.203c0.252-0.107,0.465-0.247,0.639-0.421c0.179-0.174,0.315-0.383,0.412-0.625
		c0.097-0.242,0.145-0.513,0.145-0.818C13.235,49.741,13.186,49.46,13.085,49.218z M13.085,49.218
		c-0.102-0.237-0.247-0.446-0.431-0.63c-0.189-0.179-0.416-0.339-0.683-0.479c-0.266-0.136-0.567-0.261-0.901-0.383
		c-0.242-0.087-0.446-0.174-0.61-0.266c-0.165-0.087-0.295-0.179-0.397-0.276c-0.097-0.102-0.165-0.208-0.208-0.324
		c-0.044-0.121-0.063-0.252-0.063-0.397c0-0.15,0.019-0.291,0.063-0.421c0.044-0.126,0.107-0.237,0.194-0.329
		c0.087-0.092,0.199-0.165,0.329-0.213c0.131-0.053,0.291-0.077,0.475-0.077c0.17,0,0.32,0.034,0.455,0.097
		c0.136,0.068,0.252,0.16,0.344,0.281c0.092,0.121,0.165,0.266,0.213,0.441c0.053,0.174,0.077,0.368,0.077,0.586h1.254
		c0-0.349-0.044-0.663-0.126-0.939c-0.087-0.281-0.213-0.523-0.378-0.731c-0.16-0.203-0.358-0.368-0.591-0.494
		c-0.237-0.131-0.499-0.213-0.794-0.252v-1.143h-0.828v1.128c-0.3,0.039-0.567,0.111-0.809,0.223
		c-0.237,0.107-0.441,0.252-0.61,0.431c-0.169,0.179-0.3,0.387-0.392,0.63c-0.092,0.237-0.136,0.504-0.136,0.794
		c0,0.324,0.048,0.605,0.155,0.847c0.102,0.237,0.252,0.45,0.441,0.634c0.189,0.184,0.421,0.344,0.692,0.479
		c0.266,0.136,0.567,0.262,0.901,0.378c0.228,0.077,0.421,0.16,0.581,0.247c0.16,0.087,0.291,0.179,0.387,0.281
		c0.097,0.102,0.17,0.213,0.213,0.334c0.048,0.121,0.068,0.252,0.068,0.397c0,0.315-0.102,0.571-0.305,0.76
		c-0.208,0.189-0.508,0.286-0.901,0.286c-0.155,0-0.305-0.024-0.455-0.068c-0.15-0.044-0.286-0.116-0.407-0.218
		c-0.121-0.107-0.213-0.247-0.291-0.421c-0.073-0.179-0.111-0.397-0.111-0.663H8.242c0,0.402,0.058,0.751,0.179,1.041
		c0.116,0.286,0.276,0.528,0.475,0.717c0.194,0.189,0.421,0.329,0.678,0.431c0.257,0.102,0.523,0.165,0.799,0.199v1.007h0.828
		v-1.012c0.305-0.034,0.586-0.102,0.838-0.203c0.252-0.107,0.465-0.247,0.639-0.421c0.179-0.174,0.315-0.383,0.412-0.625
		c0.097-0.242,0.145-0.513,0.145-0.818C13.235,49.741,13.186,49.46,13.085,49.218z M13.085,49.218
		c-0.102-0.237-0.247-0.446-0.431-0.63c-0.189-0.179-0.416-0.339-0.683-0.479c-0.266-0.136-0.567-0.261-0.901-0.383
		c-0.242-0.087-0.446-0.174-0.61-0.266c-0.165-0.087-0.295-0.179-0.397-0.276c-0.097-0.102-0.165-0.208-0.208-0.324
		c-0.044-0.121-0.063-0.252-0.063-0.397c0-0.15,0.019-0.291,0.063-0.421c0.044-0.126,0.107-0.237,0.194-0.329
		c0.087-0.092,0.199-0.165,0.329-0.213c0.131-0.053,0.291-0.077,0.475-0.077c0.17,0,0.32,0.034,0.455,0.097
		c0.136,0.068,0.252,0.16,0.344,0.281c0.092,0.121,0.165,0.266,0.213,0.441c0.053,0.174,0.077,0.368,0.077,0.586h1.254
		c0-0.349-0.044-0.663-0.126-0.939c-0.087-0.281-0.213-0.523-0.378-0.731c-0.16-0.203-0.358-0.368-0.591-0.494
		c-0.237-0.131-0.499-0.213-0.794-0.252v-1.143h-0.828v1.128c-0.3,0.039-0.567,0.111-0.809,0.223
		c-0.237,0.107-0.441,0.252-0.61,0.431c-0.169,0.179-0.3,0.387-0.392,0.63c-0.092,0.237-0.136,0.504-0.136,0.794
		c0,0.324,0.048,0.605,0.155,0.847c0.102,0.237,0.252,0.45,0.441,0.634c0.189,0.184,0.421,0.344,0.692,0.479
		c0.266,0.136,0.567,0.262,0.901,0.378c0.228,0.077,0.421,0.16,0.581,0.247c0.16,0.087,0.291,0.179,0.387,0.281
		c0.097,0.102,0.17,0.213,0.213,0.334c0.048,0.121,0.068,0.252,0.068,0.397c0,0.315-0.102,0.571-0.305,0.76
		c-0.208,0.189-0.508,0.286-0.901,0.286c-0.155,0-0.305-0.024-0.455-0.068c-0.15-0.044-0.286-0.116-0.407-0.218
		c-0.121-0.107-0.213-0.247-0.291-0.421c-0.073-0.179-0.111-0.397-0.111-0.663H8.242c0,0.402,0.058,0.751,0.179,1.041
		c0.116,0.286,0.276,0.528,0.475,0.717c0.194,0.189,0.421,0.329,0.678,0.431c0.257,0.102,0.523,0.165,0.799,0.199v1.007h0.828
		v-1.012c0.305-0.034,0.586-0.102,0.838-0.203c0.252-0.107,0.465-0.247,0.639-0.421c0.179-0.174,0.315-0.383,0.412-0.625
		c0.097-0.242,0.145-0.513,0.145-0.818C13.235,49.741,13.186,49.46,13.085,49.218z M13.085,49.218
		c-0.102-0.237-0.247-0.446-0.431-0.63c-0.189-0.179-0.416-0.339-0.683-0.479c-0.266-0.136-0.567-0.261-0.901-0.383
		c-0.242-0.087-0.446-0.174-0.61-0.266c-0.165-0.087-0.295-0.179-0.397-0.276c-0.097-0.102-0.165-0.208-0.208-0.324
		c-0.044-0.121-0.063-0.252-0.063-0.397c0-0.15,0.019-0.291,0.063-0.421c0.044-0.126,0.107-0.237,0.194-0.329
		c0.087-0.092,0.199-0.165,0.329-0.213c0.131-0.053,0.291-0.077,0.475-0.077c0.17,0,0.32,0.034,0.455,0.097
		c0.136,0.068,0.252,0.16,0.344,0.281c0.092,0.121,0.165,0.266,0.213,0.441c0.053,0.174,0.077,0.368,0.077,0.586h1.254
		c0-0.349-0.044-0.663-0.126-0.939c-0.087-0.281-0.213-0.523-0.378-0.731c-0.16-0.203-0.358-0.368-0.591-0.494
		c-0.237-0.131-0.499-0.213-0.794-0.252v-1.143h-0.828v1.128c-0.3,0.039-0.567,0.111-0.809,0.223
		c-0.237,0.107-0.441,0.252-0.61,0.431c-0.169,0.179-0.3,0.387-0.392,0.63c-0.092,0.237-0.136,0.504-0.136,0.794
		c0,0.324,0.048,0.605,0.155,0.847c0.102,0.237,0.252,0.45,0.441,0.634c0.189,0.184,0.421,0.344,0.692,0.479
		c0.266,0.136,0.567,0.262,0.901,0.378c0.228,0.077,0.421,0.16,0.581,0.247c0.16,0.087,0.291,0.179,0.387,0.281
		c0.097,0.102,0.17,0.213,0.213,0.334c0.048,0.121,0.068,0.252,0.068,0.397c0,0.315-0.102,0.571-0.305,0.76
		c-0.208,0.189-0.508,0.286-0.901,0.286c-0.155,0-0.305-0.024-0.455-0.068c-0.15-0.044-0.286-0.116-0.407-0.218
		c-0.121-0.107-0.213-0.247-0.291-0.421c-0.073-0.179-0.111-0.397-0.111-0.663H8.242c0,0.402,0.058,0.751,0.179,1.041
		c0.116,0.286,0.276,0.528,0.475,0.717c0.194,0.189,0.421,0.329,0.678,0.431c0.257,0.102,0.523,0.165,0.799,0.199v1.007h0.828
		v-1.012c0.305-0.034,0.586-0.102,0.838-0.203c0.252-0.107,0.465-0.247,0.639-0.421c0.179-0.174,0.315-0.383,0.412-0.625
		c0.097-0.242,0.145-0.513,0.145-0.818C13.235,49.741,13.186,49.46,13.085,49.218z M10.804,40.477c-4.242,0-7.7,3.453-7.7,7.7
		c0,4.247,3.458,7.7,7.7,7.7c4.247,0,7.7-3.453,7.7-7.7C18.504,43.93,15.051,40.477,10.804,40.477z M10.804,53.973
		c-3.196,0-5.797-2.6-5.797-5.797c0-3.196,2.6-5.797,5.797-5.797c3.196,0,5.797,2.6,5.797,5.797
		C16.6,51.373,14,53.973,10.804,53.973z M12.654,48.588c-0.189-0.179-0.416-0.339-0.683-0.479c-0.266-0.136-0.567-0.261-0.901-0.383
		c-0.242-0.087-0.446-0.174-0.61-0.266c-0.165-0.087-0.295-0.179-0.397-0.276c-0.097-0.102-0.165-0.208-0.208-0.324
		c-0.044-0.121-0.063-0.252-0.063-0.397c0-0.15,0.019-0.291,0.063-0.421c0.044-0.126,0.107-0.237,0.194-0.329
		c0.087-0.092,0.199-0.165,0.329-0.213c0.131-0.053,0.291-0.077,0.475-0.077c0.17,0,0.32,0.034,0.455,0.097
		c0.136,0.068,0.252,0.16,0.344,0.281c0.092,0.121,0.165,0.266,0.213,0.441c0.053,0.174,0.077,0.368,0.077,0.586h1.254
		c0-0.349-0.044-0.663-0.126-0.939c-0.087-0.281-0.213-0.523-0.378-0.731c-0.16-0.203-0.358-0.368-0.591-0.494
		c-0.237-0.131-0.499-0.213-0.794-0.252v-1.143h-0.828v1.128c-0.3,0.039-0.567,0.111-0.809,0.223
		c-0.237,0.107-0.441,0.252-0.61,0.431c-0.169,0.179-0.3,0.387-0.392,0.63c-0.092,0.237-0.136,0.504-0.136,0.794
		c0,0.324,0.048,0.605,0.155,0.847c0.102,0.237,0.252,0.45,0.441,0.634c0.189,0.184,0.421,0.344,0.692,0.479
		c0.266,0.136,0.567,0.262,0.901,0.378c0.228,0.077,0.421,0.16,0.581,0.247c0.16,0.087,0.291,0.179,0.387,0.281
		c0.097,0.102,0.17,0.213,0.213,0.334c0.048,0.121,0.068,0.252,0.068,0.397c0,0.315-0.102,0.571-0.305,0.76
		c-0.208,0.189-0.508,0.286-0.901,0.286c-0.155,0-0.305-0.024-0.455-0.068c-0.15-0.044-0.286-0.116-0.407-0.218
		c-0.121-0.107-0.213-0.247-0.291-0.421c-0.073-0.179-0.111-0.397-0.111-0.663H8.242c0,0.402,0.058,0.751,0.179,1.041
		c0.116,0.286,0.276,0.528,0.475,0.717c0.194,0.189,0.421,0.329,0.678,0.431c0.257,0.102,0.523,0.165,0.799,0.199v1.007h0.828
		v-1.012c0.305-0.034,0.586-0.102,0.838-0.203c0.252-0.107,0.465-0.247,0.639-0.421c0.179-0.174,0.315-0.383,0.412-0.625
		c0.097-0.242,0.145-0.513,0.145-0.818c0-0.32-0.048-0.601-0.15-0.843C12.983,48.981,12.838,48.772,12.654,48.588z M13.085,49.218
		c-0.102-0.237-0.247-0.446-0.431-0.63c-0.189-0.179-0.416-0.339-0.683-0.479c-0.266-0.136-0.567-0.261-0.901-0.383
		c-0.242-0.087-0.446-0.174-0.61-0.266c-0.165-0.087-0.295-0.179-0.397-0.276c-0.097-0.102-0.165-0.208-0.208-0.324
		c-0.044-0.121-0.063-0.252-0.063-0.397c0-0.15,0.019-0.291,0.063-0.421c0.044-0.126,0.107-0.237,0.194-0.329
		c0.087-0.092,0.199-0.165,0.329-0.213c0.131-0.053,0.291-0.077,0.475-0.077c0.17,0,0.32,0.034,0.455,0.097
		c0.136,0.068,0.252,0.16,0.344,0.281c0.092,0.121,0.165,0.266,0.213,0.441c0.053,0.174,0.077,0.368,0.077,0.586h1.254
		c0-0.349-0.044-0.663-0.126-0.939c-0.087-0.281-0.213-0.523-0.378-0.731c-0.16-0.203-0.358-0.368-0.591-0.494
		c-0.237-0.131-0.499-0.213-0.794-0.252v-1.143h-0.828v1.128c-0.3,0.039-0.567,0.111-0.809,0.223
		c-0.237,0.107-0.441,0.252-0.61,0.431c-0.169,0.179-0.3,0.387-0.392,0.63c-0.092,0.237-0.136,0.504-0.136,0.794
		c0,0.324,0.048,0.605,0.155,0.847c0.102,0.237,0.252,0.45,0.441,0.634c0.189,0.184,0.421,0.344,0.692,0.479
		c0.266,0.136,0.567,0.262,0.901,0.378c0.228,0.077,0.421,0.16,0.581,0.247c0.16,0.087,0.291,0.179,0.387,0.281
		c0.097,0.102,0.17,0.213,0.213,0.334c0.048,0.121,0.068,0.252,0.068,0.397c0,0.315-0.102,0.571-0.305,0.76
		c-0.208,0.189-0.508,0.286-0.901,0.286c-0.155,0-0.305-0.024-0.455-0.068c-0.15-0.044-0.286-0.116-0.407-0.218
		c-0.121-0.107-0.213-0.247-0.291-0.421c-0.073-0.179-0.111-0.397-0.111-0.663H8.242c0,0.402,0.058,0.751,0.179,1.041
		c0.116,0.286,0.276,0.528,0.475,0.717c0.194,0.189,0.421,0.329,0.678,0.431c0.257,0.102,0.523,0.165,0.799,0.199v1.007h0.828
		v-1.012c0.305-0.034,0.586-0.102,0.838-0.203c0.252-0.107,0.465-0.247,0.639-0.421c0.179-0.174,0.315-0.383,0.412-0.625
		c0.097-0.242,0.145-0.513,0.145-0.818C13.235,49.741,13.186,49.46,13.085,49.218z M13.085,49.218
		c-0.102-0.237-0.247-0.446-0.431-0.63c-0.189-0.179-0.416-0.339-0.683-0.479c-0.266-0.136-0.567-0.261-0.901-0.383
		c-0.242-0.087-0.446-0.174-0.61-0.266c-0.165-0.087-0.295-0.179-0.397-0.276c-0.097-0.102-0.165-0.208-0.208-0.324
		c-0.044-0.121-0.063-0.252-0.063-0.397c0-0.15,0.019-0.291,0.063-0.421c0.044-0.126,0.107-0.237,0.194-0.329
		c0.087-0.092,0.199-0.165,0.329-0.213c0.131-0.053,0.291-0.077,0.475-0.077c0.17,0,0.32,0.034,0.455,0.097
		c0.136,0.068,0.252,0.16,0.344,0.281c0.092,0.121,0.165,0.266,0.213,0.441c0.053,0.174,0.077,0.368,0.077,0.586h1.254
		c0-0.349-0.044-0.663-0.126-0.939c-0.087-0.281-0.213-0.523-0.378-0.731c-0.16-0.203-0.358-0.368-0.591-0.494
		c-0.237-0.131-0.499-0.213-0.794-0.252v-1.143h-0.828v1.128c-0.3,0.039-0.567,0.111-0.809,0.223
		c-0.237,0.107-0.441,0.252-0.61,0.431c-0.169,0.179-0.3,0.387-0.392,0.63c-0.092,0.237-0.136,0.504-0.136,0.794
		c0,0.324,0.048,0.605,0.155,0.847c0.102,0.237,0.252,0.45,0.441,0.634c0.189,0.184,0.421,0.344,0.692,0.479
		c0.266,0.136,0.567,0.262,0.901,0.378c0.228,0.077,0.421,0.16,0.581,0.247c0.16,0.087,0.291,0.179,0.387,0.281
		c0.097,0.102,0.17,0.213,0.213,0.334c0.048,0.121,0.068,0.252,0.068,0.397c0,0.315-0.102,0.571-0.305,0.76
		c-0.208,0.189-0.508,0.286-0.901,0.286c-0.155,0-0.305-0.024-0.455-0.068c-0.15-0.044-0.286-0.116-0.407-0.218
		c-0.121-0.107-0.213-0.247-0.291-0.421c-0.073-0.179-0.111-0.397-0.111-0.663H8.242c0,0.402,0.058,0.751,0.179,1.041
		c0.116,0.286,0.276,0.528,0.475,0.717c0.194,0.189,0.421,0.329,0.678,0.431c0.257,0.102,0.523,0.165,0.799,0.199v1.007h0.828
		v-1.012c0.305-0.034,0.586-0.102,0.838-0.203c0.252-0.107,0.465-0.247,0.639-0.421c0.179-0.174,0.315-0.383,0.412-0.625
		c0.097-0.242,0.145-0.513,0.145-0.818C13.235,49.741,13.186,49.46,13.085,49.218z M13.085,49.218
		c-0.102-0.237-0.247-0.446-0.431-0.63c-0.189-0.179-0.416-0.339-0.683-0.479c-0.266-0.136-0.567-0.261-0.901-0.383
		c-0.242-0.087-0.446-0.174-0.61-0.266c-0.165-0.087-0.295-0.179-0.397-0.276c-0.097-0.102-0.165-0.208-0.208-0.324
		c-0.044-0.121-0.063-0.252-0.063-0.397c0-0.15,0.019-0.291,0.063-0.421c0.044-0.126,0.107-0.237,0.194-0.329
		c0.087-0.092,0.199-0.165,0.329-0.213c0.131-0.053,0.291-0.077,0.475-0.077c0.17,0,0.32,0.034,0.455,0.097
		c0.136,0.068,0.252,0.16,0.344,0.281c0.092,0.121,0.165,0.266,0.213,0.441c0.053,0.174,0.077,0.368,0.077,0.586h1.254
		c0-0.349-0.044-0.663-0.126-0.939c-0.087-0.281-0.213-0.523-0.378-0.731c-0.16-0.203-0.358-0.368-0.591-0.494
		c-0.237-0.131-0.499-0.213-0.794-0.252v-1.143h-0.828v1.128c-0.3,0.039-0.567,0.111-0.809,0.223
		c-0.237,0.107-0.441,0.252-0.61,0.431c-0.169,0.179-0.3,0.387-0.392,0.63c-0.092,0.237-0.136,0.504-0.136,0.794
		c0,0.324,0.048,0.605,0.155,0.847c0.102,0.237,0.252,0.45,0.441,0.634c0.189,0.184,0.421,0.344,0.692,0.479
		c0.266,0.136,0.567,0.262,0.901,0.378c0.228,0.077,0.421,0.16,0.581,0.247c0.16,0.087,0.291,0.179,0.387,0.281
		c0.097,0.102,0.17,0.213,0.213,0.334c0.048,0.121,0.068,0.252,0.068,0.397c0,0.315-0.102,0.571-0.305,0.76
		c-0.208,0.189-0.508,0.286-0.901,0.286c-0.155,0-0.305-0.024-0.455-0.068c-0.15-0.044-0.286-0.116-0.407-0.218
		c-0.121-0.107-0.213-0.247-0.291-0.421c-0.073-0.179-0.111-0.397-0.111-0.663H8.242c0,0.402,0.058,0.751,0.179,1.041
		c0.116,0.286,0.276,0.528,0.475,0.717c0.194,0.189,0.421,0.329,0.678,0.431c0.257,0.102,0.523,0.165,0.799,0.199v1.007h0.828
		v-1.012c0.305-0.034,0.586-0.102,0.838-0.203c0.252-0.107,0.465-0.247,0.639-0.421c0.179-0.174,0.315-0.383,0.412-0.625
		c0.097-0.242,0.145-0.513,0.145-0.818C13.235,49.741,13.186,49.46,13.085,49.218z"/>
</g>
<g id="Layer_1">
</g>
</svg>
